<svg width="161" height="65" viewBox="0 0 161 65" fill="none" xmlns="http://www.w3.org/2000/svg">
<g opacity="0.4" clip-path="url(#clip0_2_266)" filter="url(#filter0_d_2_266)">
<path d="M38.8677 13.5139C35.7024 16.9124 32.4725 20.0474 29.6264 23.5033C24.9373 29.2006 22.266 35.738 22.6877 43.2912C23.1247 51.0925 26.6168 57.9049 36.356 56.9044C38.4421 56.6906 41.1515 56.0987 42.2839 54.6591C43.7962 52.7307 44.047 49.8057 44.8564 47.2549C43.268 46.6821 42.6942 47.6023 42.0141 48.4539C40.7943 49.9775 39.6695 51.6462 38.199 52.8873C36.3028 54.4873 34.0001 55.293 31.5377 54.0596C29.1742 52.8758 28.3192 50.6916 28.4028 48.221C28.4978 45.441 28.665 42.6344 29.1818 39.9079C30.9715 30.4149 36.014 22.6174 41.7063 15.7401C44.6208 16.4618 47.1249 17.405 49.6937 17.6379C53.2238 17.9625 56.6323 17.1759 59.2162 14.4303C61.5114 11.9902 60.7362 8.9621 57.5253 8.11055C53.961 7.16736 50.3397 7.26665 47.0489 9.04611C45.6962 9.77546 44.8564 9.50052 43.6708 8.90864C38.5409 6.34637 33.3997 3.81083 28.19 1.43567C25.2831 0.110622 22.2166 -0.435436 18.979 0.389378C14.081 1.63806 11.0866 5.1817 11.3374 10.2337C11.44 12.3225 12.4356 14.3501 12.846 16.4427C13.1272 17.8823 13.3134 19.4097 13.1158 20.8417C13.0246 21.4985 11.8998 22.4837 11.2614 22.4722C10.3722 22.457 9.18668 21.8613 8.67749 21.1281C7.57932 19.5434 8.4343 18.0083 9.41847 16.6031C9.79466 16.0685 10.0607 15.4537 10.4634 14.7167C7.97071 14.5067 6.20755 15.2513 5.34117 16.8246C4.3798 18.5697 4.52799 20.3797 5.51597 22.0637C7.26013 25.0307 11.4096 26.0884 14.5065 24.4235C17.2995 22.9228 18.8042 18.9324 17.0259 15.889C16.1025 14.3081 15.0841 12.7807 14.1646 11.196C12.2152 7.84325 13.9822 4.09722 17.8581 3.8872C19.8378 3.78028 22.0874 4.13541 23.8315 5.02896C28.9842 7.68287 33.9545 10.7072 38.8677 13.5139Z" fill="white"/>
<path d="M65.4185 9.93204C65.1069 10.6919 64.8675 11.3831 64.5483 12.0399C61.0562 19.2036 57.6021 26.3863 54.0188 33.5042C53.0498 35.4287 52.9282 37.3075 53.2246 39.4268C55.1131 39.2244 56.8991 39.0373 58.7382 38.8387C57.0929 35.5395 59.73 33.5271 60.6534 30.5753C62.257 32.7863 62.6597 34.9285 62.9523 37.086C63.5109 41.1833 64.8561 44.8492 69.0322 46.4377C74.9524 48.6907 80.6827 47.8697 85.9988 44.5399C87.0475 43.8831 87.6821 42.558 88.6435 41.3743C85.577 40.538 84.5928 41.0726 83.1602 42.8788C82.2786 43.9938 80.8879 45.1852 79.5807 45.3876C73.6301 46.3155 69.0132 45.1508 67.3184 37.9146C66.5508 34.6345 66.0227 31.3772 63.0055 29.1166C72.0227 26.5467 75.7314 22.4303 74.4432 16.4771C71.2399 18.4207 68.0898 20.33 64.8789 22.2775C65.7187 20.5057 66.5622 18.6995 67.4286 16.9048C68.5002 14.6824 69.6174 12.4867 70.6623 10.2528C71.1601 9.19505 70.9891 7.95783 69.8188 7.77072C67.6224 7.42323 65.3995 7.67907 62.8003 8.88956C63.9023 9.3287 64.4951 9.56545 65.4185 9.93204Z" fill="white"/>
<path d="M95.4676 39.3695C96.562 39.2053 97.3029 39.1365 98.0249 38.9762C99.2599 38.705 100.027 38.3537 100.366 36.6774C101.24 32.3586 103.763 28.8493 106.905 25.8097C105.283 30.266 101.798 34.0922 102.585 39.484C104.842 39.0487 106.917 38.6439 108.995 38.243C108.991 38.0444 108.991 37.8459 108.988 37.6435C108.345 37.3724 107.707 37.1012 106.902 36.7576C107.354 35.6731 107.775 34.6344 108.22 33.6034C109.398 30.8769 110.675 28.1925 111.716 25.4164C112.028 24.5801 112.043 23.1367 111.537 22.6364C111.051 22.1553 109.63 22.2775 108.786 22.5906C107.521 23.0565 106.396 23.9195 105.283 24.5725C105.287 22.1858 104.69 21.6092 102.285 22.2699C101.179 22.5715 100.202 23.362 99.1155 23.9539C99.0775 23.3925 99.0395 22.8579 98.9863 22.14C96.2466 22.7815 93.4574 22.3959 90.9419 23.4383C90.9571 23.6216 90.9761 23.8049 90.9913 23.9882C91.9451 24.225 92.9026 24.4617 94.3656 24.8245C93.009 27.486 91.8045 30.0827 90.3871 32.5609C89.1483 34.7299 88.4796 36.937 88.9241 39.5222C89.7411 39.3771 90.5277 39.1174 91.3143 39.1213C92.8077 39.1289 93.0584 38.4225 93.4802 37.021C94.8102 32.5953 97.1243 28.6431 100.445 25.34C99.2105 30.098 95.3384 33.9013 95.4676 39.3695Z" fill="white"/>
<path d="M134.394 24.3243C134.554 24.4427 134.717 24.5649 134.877 24.6832C134.69 25.3171 134.573 25.9815 134.307 26.5734C132.904 29.6779 131.305 32.7061 130.077 35.8793C128.873 38.9876 129.12 39.1748 132.312 39.0144C133.068 38.9762 133.832 39.0067 134.584 38.9227C135.086 38.8655 135.572 38.6592 136.579 38.3729C135.523 37.8573 134.994 37.6015 134.28 37.254C134.538 36.4941 134.709 35.6884 135.074 34.9896C136.127 32.9696 137.358 31.0374 138.319 28.9753C138.999 27.5128 139.535 25.9281 139.794 24.3396C140.014 22.9801 139.284 21.888 137.685 22.2202C135.83 22.6021 134.022 23.1902 132.236 23.6789C132.399 22.5181 131.647 22.2661 130.298 22.5334C128.565 22.877 126.673 22.6479 124.845 24.1639C126.03 24.4388 126.775 24.6107 127.634 24.8092C125.966 29.8956 122.029 33.9662 122.269 39.6024C124.552 39.232 126.642 38.896 128.732 38.5561C128.763 38.3996 128.797 38.243 128.827 38.0865C126.935 37.6015 126.825 36.4712 127.531 35.0469C128.846 32.3891 130.043 29.6665 131.529 27.1119C132.182 26.0045 133.425 25.2446 134.394 24.3243Z" fill="white"/>
<path d="M79.0941 35.0316C79.4095 36.3146 79.5919 37.6932 80.1239 38.9189C80.3671 39.4764 81.3323 40.1065 81.9136 40.0569C83.7224 39.9003 86.2987 36.5094 86.3253 34.3672C85.5388 34.959 84.8358 35.486 83.6502 36.3757C83.6502 33.3132 83.6502 30.7739 83.6502 28.2307C83.4108 28.1161 83.1752 28.0054 82.9358 27.8908C80.6103 30.4913 78.2809 33.0918 75.9554 35.6922C75.8148 35.5586 75.6742 35.4249 75.5374 35.2913C76.8408 30.6288 79.1549 26.688 83.5324 23.9883C84.5964 26.4856 85.44 28.9753 88.3735 30.0254C88.2177 27.2875 88.0771 24.8054 87.9327 22.2355C86.3557 22.2355 84.7978 21.9835 83.35 22.2775C76.3088 23.7171 69.8794 30.0598 70.5481 38.2507C70.7115 40.2554 71.2815 40.7137 72.9459 39.591C75.0662 38.1628 77.0726 36.5438 79.0941 35.0316Z" fill="white"/>
<path d="M43.7658 35.1385C44.0774 36.4101 44.2712 37.7466 44.7652 38.9533C44.9856 39.4917 45.8102 40.1103 46.3688 40.1179C48.2991 40.1446 51.0389 36.7537 50.8755 34.5924C50.1497 35.1232 49.4923 35.6082 48.4055 36.4063C48.2611 33.4278 48.1395 30.896 48.0103 28.2612C46.631 29.6206 45.3846 30.8655 44.123 32.0951C42.9109 33.2788 41.6873 34.4473 40.4675 35.6196C41.5505 30.6898 43.8608 26.7261 48.2041 24.0722C49.2871 26.604 50.0889 29.1815 53.0604 30.1171C52.897 27.4364 52.7412 24.9238 52.5854 22.3997C44.5448 20.605 34.2547 28.792 35.1895 38.2315C35.3947 40.3012 36.0216 40.8244 37.7278 39.6597C39.7987 38.243 41.7595 36.6506 43.7658 35.1385Z" fill="white"/>
<path d="M144.969 32.4617C150.976 31.9195 157.166 26.8331 156.661 23.0527C152.876 22.7854 149.099 22.6327 145.714 24.8436C141.879 27.3486 139.447 30.6632 139.736 35.5204C139.862 37.6588 141.104 39.3504 142.894 39.7399C145.094 40.2173 153.123 36.517 154.525 34.0884C153.651 34.2564 153.036 34.2908 152.481 34.497C150.836 35.1118 149.236 35.8564 147.575 36.4254C145.972 36.9753 145.178 36.4407 144.984 34.7872C144.9 34.0502 144.969 33.2942 144.969 32.4617Z" fill="white"/>
<path d="M122.986 23.0451C122.804 22.8541 122.625 22.6632 122.443 22.4723C119.981 22.7739 117.518 23.0756 115.056 23.3773C115.014 23.6293 114.976 23.8775 114.934 24.1295C115.679 24.3205 116.424 24.5114 117.393 24.7558C117.154 25.3248 116.948 25.9014 116.675 26.4436C115.326 29.0899 113.931 31.7132 112.609 34.3748C112.191 35.2111 111.803 36.1123 111.651 37.0249C111.328 38.9227 112.058 39.6368 113.954 39.3695C115.379 39.1671 116.789 38.8464 118.198 38.56C118.559 38.4874 118.905 38.3461 119.262 38.2354C116.538 37.0631 116.409 36.8149 117.496 34.6039C118.221 33.1299 119.156 31.7591 119.851 30.2698C120.961 27.8908 121.949 25.4546 122.986 23.0451Z" fill="white"/>
<path d="M121.269 14.1897C120.475 14.9305 119.68 15.7248 118.825 16.4542C117.568 17.5234 117.815 18.5086 118.947 19.4212C120.813 20.9219 122.971 20.7348 125.202 20.5973C123.879 18.4436 122.644 16.4313 121.269 14.1897Z" fill="white"/>
<path d="M38.8682 13.5139C33.9549 10.7072 28.9884 7.6829 23.8282 5.0328C22.084 4.13543 19.8345 3.78412 17.8547 3.89105C13.9826 4.10107 12.2119 7.8471 14.1612 11.1998C15.0808 12.7845 16.0992 14.3081 17.0225 15.8929C18.7971 18.9363 17.2923 22.9229 14.5032 24.4274C11.4063 26.0923 7.26057 25.0345 5.51262 22.0675C4.52464 20.3873 4.37265 18.5735 5.33782 16.8284C6.2042 15.2551 7.96736 14.5105 10.4601 14.7205C10.0573 15.4575 9.79131 16.0723 9.41512 16.6069C8.43095 18.016 7.57597 19.5472 8.67414 21.1319C9.18333 21.8651 10.3689 22.4608 11.2581 22.4761C11.9003 22.4875 13.0212 21.5024 13.1124 20.8456C13.31 19.4174 13.1238 17.8862 12.8426 16.4465C12.4322 14.354 11.4405 12.3263 11.3341 10.2375C11.0871 5.18173 14.0814 1.63808 18.9795 0.389404C22.217 -0.43541 25.2835 0.106829 28.1905 1.43188C33.4001 3.81086 38.5414 6.34639 43.6675 8.90485C44.8492 9.49673 45.6928 9.77166 47.0456 9.04231C50.3363 7.26667 53.9614 7.16357 57.5219 8.10676C60.7328 8.95831 61.508 11.9864 59.2129 14.4265C56.6289 17.1721 53.2204 17.9587 49.6903 17.6341C47.1216 17.3974 44.6174 16.458 41.7029 15.7363C36.0107 22.6174 30.972 30.4111 29.1784 39.9041C28.6654 42.6268 28.4982 45.4372 28.3994 48.2172C28.312 50.6878 29.167 52.872 31.5344 54.0558C33.9967 55.2892 36.2994 54.4835 38.1956 52.8835C39.6662 51.6424 40.7909 49.9737 42.0107 48.4501C42.6909 47.5986 43.2647 46.6783 44.853 47.2511C44.0437 49.8019 43.7929 52.7269 42.2805 54.6553C41.1481 56.0987 38.4388 56.6868 36.3526 56.9006C26.6135 57.9011 23.1214 51.0887 22.6844 43.2874C22.2588 35.7342 24.9339 29.1968 29.623 23.4995C32.4729 20.0437 35.7029 16.9086 38.8682 13.5139ZM47.9994 10.9974C50.6897 12.7502 53.3838 13.659 56.325 13.3268C57.1647 13.2313 57.9133 12.3187 58.6999 11.7841C58.0653 11.1769 57.5371 10.2986 56.7847 10.0122C53.8702 8.90866 51.0203 9.31343 47.9994 10.9974Z" fill="black"/>
<path d="M65.4186 9.93206C64.4952 9.56548 63.9024 9.32873 62.8042 8.89341C65.3996 7.68292 67.6263 7.42707 69.8227 7.77456C70.993 7.95785 71.1602 9.19508 70.6663 10.2566C69.6175 12.4905 68.5041 14.69 67.4325 16.9086C66.5662 18.7033 65.7226 20.5095 64.8828 22.2814C68.0899 20.3339 71.2438 18.4246 74.4472 16.4809C75.7391 22.4379 72.0266 26.5505 63.0094 29.1204C66.0304 31.3772 66.5548 34.6383 67.3223 37.9185C69.0171 45.1547 73.634 46.3193 79.5846 45.3914C80.8918 45.1852 82.2826 43.9938 83.1641 42.8826C84.5967 41.0764 85.5809 40.5456 88.6474 41.3781C87.686 42.5619 87.0515 43.8869 86.0027 44.5437C80.6866 47.8735 74.9564 48.6945 69.0361 46.4415C64.8562 44.853 63.511 41.1872 62.9562 37.0898C62.6637 34.9285 62.2609 32.7901 60.6573 30.5791C59.7339 33.5309 57.093 35.5433 58.7422 38.8426C56.903 39.0373 55.1208 39.2282 53.2285 39.4306C52.9321 37.3113 53.0537 35.4287 54.0227 33.508C57.606 26.3902 61.0601 19.2074 64.5522 12.0437C64.8676 11.3831 65.107 10.6881 65.4186 9.93206ZM62.4623 26.7835C66.7904 25.8174 68.5725 24.2708 69.0703 21.2465C66.9499 23.0222 64.9208 24.7214 62.4623 26.7835Z" fill="black"/>
<path d="M95.4678 39.3695C95.3386 33.8975 99.2069 30.098 100.453 25.3515C97.1359 28.6507 94.818 32.6068 93.488 37.0325C93.0662 38.434 92.8154 39.1404 91.3221 39.1328C90.5355 39.1289 89.7489 39.3886 88.9319 39.5337C88.4873 36.9447 89.1561 34.7376 90.3949 32.5724C91.8123 30.0942 93.0168 27.4937 94.3734 24.836C92.9104 24.4732 91.9567 24.2365 90.9991 23.9997C90.9839 23.8164 90.9649 23.6331 90.9497 23.4498C93.4652 22.4074 96.2581 22.793 98.9941 22.1515C99.0435 22.8656 99.0815 23.404 99.1233 23.9653C100.21 23.3696 101.187 22.583 102.292 22.2813C104.698 21.6246 105.294 22.2012 105.291 24.584C106.404 23.931 107.525 23.068 108.794 22.6021C109.641 22.289 111.063 22.1668 111.545 22.6479C112.047 23.1482 112.035 24.5954 111.724 25.4279C110.686 28.204 109.406 30.8923 108.228 33.6149C107.783 34.6459 107.361 35.6846 106.909 36.7691C107.715 37.1089 108.353 37.3838 108.995 37.655C108.999 37.8535 108.999 38.0521 109.003 38.2545C106.924 38.6554 104.846 39.0564 102.593 39.4955C101.806 34.1037 105.291 30.2775 106.913 25.8212C103.771 28.8608 101.247 32.37 100.373 36.6889C100.035 38.3614 99.2677 38.7127 98.0327 38.9877C97.3069 39.1366 96.5621 39.2053 95.4678 39.3695Z" fill="black"/>
<path d="M134.394 24.3243C133.425 25.2446 132.183 26.0045 131.537 27.1118C130.051 29.6665 128.85 32.3891 127.539 35.0469C126.836 36.4712 126.947 37.6053 128.835 38.0865C128.805 38.243 128.771 38.3996 128.74 38.5561C126.65 38.896 124.557 39.232 122.277 39.6024C122.033 33.9662 125.974 29.8956 127.642 24.8092C126.783 24.6107 126.038 24.4388 124.853 24.1639C126.681 22.6479 128.573 22.877 130.306 22.5334C131.655 22.2661 132.407 22.5181 132.244 23.6789C134.026 23.194 135.838 22.6059 137.693 22.2202C139.293 21.888 140.022 22.9801 139.802 24.3396C139.543 25.9281 139.008 27.5128 138.327 28.9753C137.366 31.0373 136.135 32.9657 135.082 34.9896C134.717 35.6922 134.55 36.4941 134.288 37.254C135.002 37.6015 135.531 37.8573 136.587 38.3728C135.58 38.6592 135.094 38.8654 134.592 38.9227C133.84 39.0067 133.076 38.9762 132.32 39.0144C129.128 39.1747 128.877 38.9915 130.085 35.8793C131.317 32.7061 132.912 29.6779 134.315 26.5734C134.584 25.9777 134.698 25.3133 134.885 24.6832C134.717 24.5648 134.558 24.4465 134.394 24.3243Z" fill="black"/>
<path d="M79.094 35.0316C77.0724 36.5437 75.0699 38.1628 72.9419 39.5948C71.2738 40.7175 70.7076 40.2592 70.5442 38.2545C69.8754 30.0598 76.3048 23.7171 83.3461 22.2813C84.7938 21.9835 86.3556 22.2393 87.9288 22.2393C88.0732 24.8054 88.2137 27.2913 88.3695 30.0292C85.436 28.9753 84.5924 26.4856 83.5285 23.9921C79.151 26.6956 76.833 30.6326 75.5335 35.2951C75.6741 35.4287 75.8147 35.5624 75.9515 35.696C78.277 33.0956 80.6063 30.4951 82.9319 27.8947C83.1713 28.0092 83.4069 28.12 83.6463 28.2345C83.6463 30.7777 83.6463 33.317 83.6463 36.3795C84.8318 35.4898 85.531 34.9629 86.3214 34.371C86.2948 36.5132 83.7185 39.9003 81.9097 40.0607C81.3283 40.1103 80.3631 39.4802 80.1199 38.9227C79.588 37.6931 79.4094 36.3146 79.094 35.0316Z" fill="black"/>
<path d="M43.7667 35.1385C41.7603 36.6507 39.8034 38.243 37.7248 39.6597C36.0187 40.8244 35.3917 40.3012 35.1865 38.2316C34.2517 28.792 44.5457 20.6088 52.5825 22.3997C52.7383 24.9238 52.8941 27.4364 53.0575 30.1171C50.0859 29.1815 49.2804 26.604 48.2012 24.0723C43.8579 26.7262 41.5476 30.6899 40.4646 35.6197C41.6843 34.4435 42.9079 33.2751 44.1201 32.0951C45.3817 30.8655 46.628 29.6207 48.0074 28.2613C48.1328 30.8923 48.2582 33.4278 48.4026 36.4063C49.4894 35.6082 50.1505 35.1232 50.8725 34.5925C51.0359 36.7576 48.2962 40.1485 46.3658 40.118C45.8072 40.1103 44.9827 39.4917 44.7623 38.9533C44.2683 37.7466 44.0783 36.4101 43.7667 35.1385Z" fill="black"/>
<path d="M144.969 32.4617C144.969 33.2941 144.897 34.0502 144.984 34.791C145.174 36.4445 145.972 36.9791 147.575 36.4292C149.236 35.8602 150.832 35.1156 152.481 34.5008C153.036 34.2946 153.651 34.2602 154.525 34.0922C153.123 36.517 145.094 40.2172 142.894 39.7437C141.104 39.358 139.865 37.6626 139.736 35.5242C139.447 30.6669 141.879 27.3524 145.714 24.8474C149.095 22.6365 152.873 22.7892 156.661 23.0565C157.166 26.8331 150.976 31.9194 144.969 32.4617ZM145.755 29.7619C148.32 29.7734 150.703 27.6617 151.334 24.7787C148.658 25.6188 146.827 27.192 145.755 29.7619Z" fill="black"/>
<path d="M122.987 23.0451C121.946 25.4546 120.958 27.8908 119.848 30.2698C119.153 31.7552 118.218 33.1261 117.492 34.6039C116.406 36.8149 116.535 37.0631 119.259 38.2354C118.906 38.3461 118.556 38.4874 118.195 38.56C116.782 38.8464 115.376 39.1671 113.951 39.3695C112.055 39.6368 111.329 38.9189 111.648 37.0249C111.804 36.1123 112.191 35.2149 112.606 34.3748C113.928 31.7171 115.323 29.0899 116.672 26.4436C116.945 25.9052 117.15 25.3286 117.39 24.7558C116.425 24.5076 115.676 24.3167 114.931 24.1295C114.973 23.8775 115.011 23.6293 115.053 23.3773C117.515 23.0756 119.977 22.7739 122.44 22.4723C122.626 22.6632 122.808 22.8541 122.987 23.0451Z" fill="black"/>
<path d="M121.269 14.1897C122.644 16.4313 123.879 18.4398 125.202 20.5935C122.971 20.731 120.809 20.9181 118.947 19.4174C117.815 18.5047 117.568 17.5195 118.825 16.4503C119.677 15.7286 120.475 14.9305 121.269 14.1897Z" fill="black"/>
<path d="M47.9992 10.9974C51.0201 9.31342 53.8701 8.90865 56.7846 10.0122C57.537 10.2986 58.069 11.1769 58.6997 11.784C57.9094 12.3225 57.1608 13.2351 56.3248 13.3268C53.3799 13.6551 50.6895 12.7463 47.9992 10.9974Z" fill="white"/>
<path d="M62.4621 26.7835C64.9206 24.7214 66.9498 23.0221 69.0701 21.2465C68.5723 24.2708 66.7902 25.8173 62.4621 26.7835Z" fill="white"/>
<path d="M145.756 29.7619C146.831 27.192 148.659 25.6149 151.334 24.7787C150.7 27.6655 148.321 29.7772 145.756 29.7619Z" fill="white"/>
</g>
<defs>
<filter id="filter0_d_2_266" x="0.691589" y="-7.62939e-05" width="160" height="65" filterUnits="userSpaceOnUse" color-interpolation-filters="sRGB">
<feFlood flood-opacity="0" result="BackgroundImageFix"/>
<feColorMatrix in="SourceAlpha" type="matrix" values="0 0 0 0 0 0 0 0 0 0 0 0 0 0 0 0 0 0 127 0" result="hardAlpha"/>
<feOffset dy="4"/>
<feGaussianBlur stdDeviation="2"/>
<feComposite in2="hardAlpha" operator="out"/>
<feColorMatrix type="matrix" values="0 0 0 0 0 0 0 0 0 0 0 0 0 0 0 0 0 0 0.25 0"/>
<feBlend mode="normal" in2="BackgroundImageFix" result="effect1_dropShadow_2_266"/>
<feBlend mode="normal" in="SourceGraphic" in2="effect1_dropShadow_2_266" result="shape"/>
</filter>
<clipPath id="clip0_2_266">
<rect width="152" height="57" fill="white" transform="translate(4.69159 -7.62939e-05)"/>
</clipPath>
</defs>
</svg>
