<svg width="109" height="67" viewBox="0 0 109 67" fill="none" xmlns="http://www.w3.org/2000/svg">
<g opacity="0.4" clip-path="url(#clip0_2_247)" filter="url(#filter0_d_2_247)">
<path d="M104.625 55.5118C104.506 55.5195 104.366 55.4937 104.263 55.5429C101.951 56.6875 100.661 56.5269 99.4792 54.2325C98.3336 52.008 97.7014 49.5141 96.8885 47.1239C96.7982 46.8572 96.9479 46.4428 97.1027 46.1631C99.358 42.1233 100.625 37.739 101.505 33.2356C102.251 29.4236 102.862 25.5806 102.279 21.678C102.122 20.624 101.98 19.2049 100.785 19.0702C99.8224 18.9615 98.6897 19.583 97.7788 20.1268C97.1595 20.4971 96.7079 21.2455 96.3286 21.9085C95.7532 22.9133 95.2061 23.9543 94.8165 25.042C92.2851 32.0884 92.1561 39.3213 93.4257 46.6034C93.6786 48.0614 92.8193 48.5456 92.0013 49.1671C91.1601 49.8068 90.1976 50.0036 89.248 49.3355C87.6766 48.2297 86.5515 43.7988 87.2379 41.9809C88.4094 38.881 89.5887 35.7761 90.5486 32.6089C91.2762 30.2109 91.5678 27.7015 90.9175 25.2025C90.6234 24.0708 90.0505 23.1023 88.7784 22.8615C87.4934 22.6206 86.4225 23.1463 85.78 24.1951C85.1375 25.244 84.5543 26.4015 84.2782 27.5902C83.0448 32.943 83.0396 38.3657 83.7467 43.7833C83.9428 45.2853 83.2822 46.2564 82.3636 47.1886C81.6566 47.906 80.867 47.8153 80.4954 46.9038C80.0645 45.8446 79.6052 44.6767 79.631 43.5683C79.711 40.352 80.0154 37.1408 80.258 33.9296C80.3715 32.4302 80.5831 30.9386 80.6657 29.4366C80.7199 28.4499 80.0903 28.0719 79.1613 28.1211C77.9047 28.1884 77.1744 28.8436 76.9964 30.0918C76.5706 33.0802 76.2713 36.092 75.6933 39.0494C75.283 41.1418 74.5838 43.1902 73.8251 45.1868C73.629 45.7048 72.7078 46.2564 72.1479 46.2253C71.7324 46.202 71.0925 45.2956 71.0331 44.7311C70.8654 43.1566 70.7829 41.538 70.9661 39.9713C71.2963 37.1486 71.8511 34.3518 72.2975 31.542C72.5169 30.1643 71.4796 29.2217 70.2048 29.7733C69.6268 30.0244 69.0643 30.7003 68.8501 31.3089C68.4992 32.3111 68.285 33.4169 68.2825 34.4786C68.2747 36.9207 66.791 38.4641 65.1576 40.2225C65.0673 39.298 65.0544 38.5677 64.9176 37.8581C64.5538 35.9599 64.2958 34.0203 63.7023 32.1946C63.0933 30.3197 61.8109 29.6541 59.9582 30.2239C58.5983 30.6408 57.1791 31.2675 56.1211 32.1894C52.8286 35.0613 51.1952 38.8448 50.7204 43.1695C50.674 43.5839 50.2998 43.9594 50.0779 44.353C49.5747 44.0578 48.7903 43.8713 48.6277 43.444C48.3155 42.6309 48.1865 41.6597 48.2897 40.7922C48.5322 38.7878 48.9219 36.799 49.327 34.8205C49.4792 34.0747 49.567 33.4272 48.7851 33.0466C47.9491 32.64 47.2679 32.943 46.7982 33.6862C46.5737 34.0436 46.4163 34.4579 46.3028 34.8697C46.0138 35.9055 45.8641 36.9932 45.4797 37.9928C44.6178 40.2303 43.7482 42.4755 42.6593 44.6042C42.3574 45.192 41.2452 45.7281 40.5614 45.6659C39.5241 45.5701 39.3796 44.4592 39.3306 43.5217C39.168 40.5125 40.1331 37.8219 41.7665 35.3669C43.4515 32.8342 45.7274 31.2105 48.8832 31.0914C49.1825 31.081 49.4741 30.9153 49.7708 30.8221C49.7863 30.7133 49.8018 30.6019 49.8173 30.4932C49.3476 30.2627 48.8987 29.9493 48.4032 29.8121C46.1067 29.175 44.0192 29.7707 42.2413 31.2312C38.203 34.546 36.1284 38.9147 35.6742 44.0992C35.6303 44.5938 35.6561 45.2723 35.3594 45.5339C34.2731 46.492 33.1429 47.4606 31.8785 48.1416C30.4825 48.8926 29.231 48.3643 28.6349 46.8572C28.2143 45.7954 28.1137 44.6094 27.8634 43.4777C27.6699 42.605 27.9769 42.1 28.7872 41.6338C31.334 40.1707 33.7338 38.4952 35.4936 36.0687C36.678 34.4346 37.3128 32.6452 36.9463 30.6019C36.4096 27.6083 33.597 26.1244 31.0269 27.7274C29.6645 28.5768 28.4646 29.9079 27.5821 31.2752C25.7036 34.1834 24.9321 37.5163 24.5708 40.9476C24.5244 41.3826 24.4367 41.9809 24.1451 42.1958C23.1568 42.9235 22.0679 43.5139 21.1544 44.0733C18.9663 41.942 16.84 39.9946 14.8557 37.9047C13.0262 35.9781 11.1761 34.0255 9.65367 31.8579C8.01771 29.5246 8.24478 26.9454 9.79817 24.5655C11.3593 22.17 14.2983 21.2041 17.0723 22.082C19.3998 22.82 20.8732 25.0135 20.837 27.6575C20.8112 29.4159 19.8023 30.7133 18.8759 32.0677C18.6566 32.3862 18.6256 32.8368 18.5069 33.2278C18.9456 33.3055 19.3791 33.4143 19.8204 33.448C20.0191 33.4635 20.2358 33.3521 20.4293 33.2615C22.8084 32.1376 24.4083 30.3896 24.6457 27.673C24.8753 25.0497 23.7271 23.0583 21.526 21.7169C18.4553 19.8445 15.1318 19.57 11.7025 20.4453C5.23864 22.0949 2.77954 27.8647 6.30175 33.5386C7.69516 35.7812 9.57626 37.739 11.3774 39.6942C13.4313 41.9265 15.6427 44.0137 17.836 46.2123C16.102 47.5253 14.4893 48.6078 13.0417 49.8819C11.5012 51.2414 9.95041 52.6528 8.70667 54.2739C7.03716 56.4466 7.78289 58.1998 10.4897 58.5753C14.8918 59.1865 18.8527 57.9745 22.1891 55.0223C23.6522 53.7275 24.3722 51.9743 23.8948 49.9984C23.5464 48.556 22.9375 47.1783 22.4059 45.6556C22.9581 45.2956 23.6238 44.8605 24.3309 44.3996C24.6895 45.7928 24.9192 47.1084 25.3682 48.3436C26.2352 50.7235 28.0285 52.1193 30.2167 51.8086C31.4553 51.6325 32.6758 50.8918 33.7622 50.1849C34.704 49.5737 35.4446 48.6544 36.2729 47.8723C37.8469 49.6618 39.568 50.2159 41.3949 49.25C42.3884 48.7243 43.2966 47.9137 44.0372 47.054C44.881 46.0725 45.4925 44.8942 46.0731 44.0034C46.5918 44.8864 46.935 46.2253 47.7504 46.6474C48.5838 47.0799 49.8792 46.6163 51.1487 46.5361C52.2041 48.1416 53.2389 48.6777 55.1354 47.9629C56.2579 47.5408 57.4758 46.8675 58.1777 45.943C59.3853 44.3556 60.2239 42.4858 61.2148 40.7326C61.3593 40.4763 61.4728 40.2044 61.7438 39.6502C61.8496 40.6058 61.8883 41.2091 61.9915 41.8022C62.2211 43.1203 61.9089 44.1769 60.9258 45.1765C59.8162 46.3056 58.7738 47.5616 57.9713 48.9211C56.9572 50.6458 56.0128 52.4664 55.4115 54.3646C54.8155 56.255 55.4915 57.7311 56.7404 58.4717C58.0848 59.2694 60.2239 59.2072 61.4238 57.9435C62.5153 56.7911 63.4675 55.3797 64.061 53.9088C65.2557 50.9436 65.4182 47.7428 65.1473 44.6016C64.9564 42.3771 66.4581 41.5018 67.5341 40.2846C67.9418 42.4729 68.1225 44.6482 68.7805 46.6655C69.601 49.1749 72.2614 49.7887 74.3051 48.0924C75.0147 47.5046 75.5488 46.6811 76.0752 45.9042C76.4339 45.3759 76.6377 44.744 76.8983 44.1924C77.4376 45.7281 77.8092 47.3 78.5188 48.6984C79.6206 50.8659 81.4992 51.0653 83.259 49.3743C83.708 48.9418 84.1131 48.4628 84.5672 47.9733C85.46 50.0813 86.0948 52.3162 88.4765 52.9506C90.9821 53.6162 92.4555 51.6584 94.1662 50.1771C94.3391 50.6924 94.4217 51.1171 94.6152 51.4797C95.6242 53.3624 96.486 55.3616 97.7426 57.063C98.9967 58.7618 101.216 59.0881 102.994 58.2905C104.284 57.7078 104.908 56.6616 104.625 55.5118Z" fill="white"/>
<path d="M27.3908 12.8292C27.4527 12.9845 27.5147 13.1425 27.5766 13.2979C28.5262 13.0596 29.5119 12.9146 30.4202 12.565C33.6534 11.3116 36.9769 10.5425 40.4424 10.3224C43.6653 10.1178 48.3203 12.7541 49.9098 15.8202C48.2248 17.0684 46.4211 17.7624 44.2665 17.2652C43.833 17.1642 43.335 17.3403 42.8679 17.3869C43.0898 17.8116 43.2137 18.3503 43.5491 18.6429C45.536 20.3754 47.8713 20.8364 50.4155 20.3495C53.5739 19.7461 56.4304 18.371 59.2559 16.8871C60.2081 16.3873 61.3279 16.2035 62.3704 15.8772C62.4169 16.0196 62.4633 16.162 62.5098 16.3019C62.3291 16.3873 62.1098 16.4339 61.973 16.566C61.7305 16.7991 61.5395 17.0865 61.3254 17.3507C61.6531 17.4931 61.9963 17.7857 62.3085 17.7547C65.3404 17.4543 67.7866 18.5264 70.0083 20.5852C72.3926 22.7941 75.1407 24.5033 78.3791 25.2206C78.7352 25.3009 79.1558 25.1015 79.5454 25.029C79.4319 24.6846 79.4009 24.2676 79.1868 24.0035C77.236 21.5977 75.2594 19.2126 73.2777 16.8302C72.3126 15.6674 71.0173 15.1288 69.5516 15.0329C67.2809 14.8827 65.005 14.8232 62.7368 14.6445C62.1408 14.5979 61.5628 14.2664 60.9796 14.0541C60.0481 13.7148 59.114 13.0674 58.1902 13.0829C56.1775 13.1166 54.4822 12.5106 52.9314 11.322C52.0773 10.6668 51.2232 10.0142 50.3949 9.32794C48.5086 7.7612 46.4598 6.89367 43.9801 7.72754C43.7814 7.79487 43.5543 7.76897 43.3401 7.80264C38.2284 8.57436 33.1863 9.59727 28.552 12.0471C28.1417 12.2542 27.7779 12.5624 27.3908 12.8292Z" fill="white"/>
<path d="M54.668 0.00783182C51.0607 -0.113882 47.1798 1.28971 43.7582 4.00625C43.2292 4.42578 42.7518 4.95147 42.3725 5.51084C42.2177 5.74132 42.3906 6.19192 42.4138 6.54152C42.7183 6.47937 43.0821 6.50267 43.3144 6.33694C44.0859 5.79311 44.7955 5.16124 45.5516 4.59928C52.1909 -0.334002 63.6839 0.126955 68.9891 9.26583C69.7323 10.5451 70.0806 12.0523 70.6586 13.4326C70.7851 13.7356 71.1205 13.9479 71.3579 14.2017C71.5411 13.8728 71.8972 13.531 71.8766 13.2125C71.825 12.4485 71.665 11.6768 71.4327 10.9439C69.3194 4.33514 63.0078 0.0259594 54.668 0.00783182Z" fill="white"/>
<path d="M37.0598 17.3973C37.2533 20.8855 38.4944 23.9517 39.9833 26.9272C40.1949 27.3493 41.0826 27.8388 41.4283 27.7041C42.3727 27.3364 41.7199 26.619 41.4309 26.1192C40.1614 23.9128 39.4131 21.533 39.3589 19.0106C39.315 16.9674 39.6066 14.9164 39.6866 12.868C39.7021 12.4536 39.4466 12.0289 39.315 11.6094C38.9976 11.8891 38.497 12.1144 38.3912 12.4614C37.8881 14.0877 37.4933 15.7503 37.0598 17.3973Z" fill="white"/>
<path d="M71.9725 23.0039C71.539 22.8175 71.2113 22.543 70.9403 22.5922C70.592 22.6543 70.1688 22.9003 69.9882 23.1981C69.2579 24.4023 68.587 25.6479 67.9394 26.9013C67.7665 27.2328 67.751 27.6446 67.6633 28.0201C68.1329 27.9968 68.8683 28.1521 69.0257 27.9191C69.9934 26.4792 70.8294 24.9513 71.9725 23.0039Z" fill="white"/>
<path d="M104.624 55.5118C104.908 56.659 104.284 57.7078 102.988 58.2879C101.213 59.0855 98.9912 58.7592 97.7372 57.0604C96.4805 55.359 95.6187 53.3572 94.6097 51.4771C94.4162 51.1145 94.3337 50.6924 94.1608 50.1745C92.45 51.6558 90.9766 53.6161 88.471 52.948C86.0868 52.3136 85.4546 50.0787 84.5618 47.9707C84.1076 48.4602 83.7025 48.9392 83.2535 49.3717C81.4963 51.0653 79.6152 50.8633 78.5134 48.6958C77.8037 47.2974 77.4322 45.7255 76.8929 44.1898C76.6348 44.7414 76.4284 45.3733 76.0697 45.9016C75.5433 46.6785 75.0066 47.502 74.2996 48.0898C72.2559 49.7861 69.5956 49.1723 68.775 46.6629C68.1144 44.6456 67.9364 42.4677 67.5287 40.282C66.4527 41.4992 64.9483 42.3745 65.1418 44.599C65.4128 47.7402 65.2476 50.941 64.0555 53.9062C63.4646 55.3745 62.5098 56.7885 61.4183 57.9409C60.2185 59.2072 58.0793 59.2668 56.735 58.4692C55.4861 57.7285 54.81 56.2524 55.4061 54.362C56.0047 52.4638 56.9491 50.6432 57.9658 48.9185C58.7683 47.559 59.8108 46.303 60.9203 45.1739C61.9035 44.1743 62.2157 43.1177 61.986 41.7996C61.8828 41.2091 61.8467 40.6057 61.7383 39.6476C61.47 40.2018 61.3538 40.4763 61.2093 40.73C60.221 42.4832 59.3798 44.353 58.1722 45.9404C57.4704 46.8623 56.2524 47.5382 55.13 47.9603C53.2334 48.6751 52.2012 48.139 51.1433 46.5335C49.8737 46.6163 48.5784 47.0773 47.7449 46.6448C46.9295 46.2227 46.5863 44.8838 46.0677 44.0008C45.4871 44.8916 44.8755 46.0725 44.0318 47.0514C43.2912 47.9111 42.3855 48.7243 41.3894 49.2474C39.5625 50.2133 37.8414 49.6592 36.2674 47.8697C35.4417 48.6492 34.6985 49.5711 33.7567 50.1823C32.6703 50.8892 31.4498 51.6299 30.2113 51.806C28.0257 52.1167 26.2323 50.7209 25.3627 48.341C24.9112 47.1058 24.6841 45.7902 24.3254 44.397C23.6184 44.8579 22.9526 45.293 22.4004 45.653C22.932 47.1731 23.541 48.5534 23.8893 49.9958C24.3667 51.9717 23.6468 53.7249 22.1837 55.0197C18.8473 57.9719 14.8864 59.1839 10.4843 58.5727C7.77744 58.1972 7.03171 56.444 8.70122 54.2713C9.94754 52.6502 11.4958 51.2388 13.0363 49.8793C14.4813 48.6052 16.0966 47.5227 17.8306 46.2097C15.6373 44.0111 13.4259 41.9239 11.3719 39.6916C9.5708 37.7338 7.68713 35.776 6.2963 33.536C2.77925 27.8647 5.23835 22.0949 11.7022 20.4427C15.1315 19.5674 18.455 19.8419 21.5257 21.7142C23.7268 23.0557 24.875 25.0471 24.6454 27.6704C24.408 30.387 22.8081 32.1376 20.429 33.2589C20.2381 33.3495 20.0188 33.4609 19.8201 33.4454C19.3788 33.4117 18.9427 33.3029 18.5067 33.2252C18.6254 32.8342 18.6563 32.3862 18.8756 32.0651C19.8046 30.7133 20.8109 29.4133 20.8367 27.6549C20.8729 25.0135 19.3995 22.82 17.0642 22.082C14.2929 21.2041 11.3538 22.1726 9.79013 24.5654C8.23675 26.9453 8.00967 29.5246 9.64563 31.8579C11.1655 34.0254 13.0156 35.978 14.8477 37.9047C16.8294 39.992 18.9582 41.942 21.1464 44.0733C22.0624 43.5139 23.1488 42.9235 24.137 42.1958C24.4286 41.9808 24.5164 41.3852 24.5628 40.9476C24.9241 37.5189 25.6982 34.186 27.5741 31.2752C28.4566 29.9079 29.6565 28.5768 31.0189 27.7274C33.589 26.1244 36.4042 27.6057 36.9383 30.6019C37.3047 32.6452 36.6699 34.4346 35.4855 36.0687C33.7231 38.4978 31.3234 40.1733 28.7791 41.6338C27.9689 42.1 27.6644 42.6049 27.8554 43.4777C28.1057 44.6068 28.2063 45.7954 28.6269 46.8572C29.223 48.3643 30.477 48.89 31.8704 48.1416C33.1348 47.4605 34.265 46.492 35.3514 45.5338C35.6481 45.2723 35.6223 44.5938 35.6662 44.0992C36.1203 38.9147 38.1949 34.546 42.2332 31.2312C44.0111 29.7706 46.0986 29.1724 48.3952 29.8121C48.8906 29.9493 49.3396 30.2601 49.8092 30.4932C49.7937 30.6019 49.7783 30.7133 49.7628 30.822C49.466 30.9153 49.1744 31.0784 48.8751 31.0914C45.7193 31.2131 43.4434 32.8342 41.7584 35.3669C40.1251 37.8219 39.16 40.5125 39.3226 43.5217C39.3716 44.4566 39.5161 45.5701 40.5534 45.6659C41.2372 45.7281 42.3519 45.192 42.6513 44.6042C43.7402 42.4755 44.6098 40.2302 45.4716 37.9928C45.8561 36.9958 46.0057 35.9081 46.2947 34.8697C46.4083 34.4605 46.5657 34.0436 46.7902 33.6862C47.2598 32.943 47.941 32.6374 48.7771 33.0466C49.5615 33.4272 49.4712 34.0772 49.3189 34.8205C48.9138 36.799 48.5216 38.7878 48.2816 40.7922C48.1758 41.6597 48.3074 42.6308 48.6197 43.444C48.7822 43.8713 49.5667 44.0577 50.0698 44.353C50.2918 43.9593 50.6685 43.5838 50.7124 43.1695C51.1871 38.8422 52.8205 35.0587 56.1131 32.1894C57.171 31.2675 58.5902 30.6408 59.9501 30.2238C61.8054 29.6541 63.0853 30.3171 63.6942 32.1946C64.2877 34.0203 64.5458 35.9599 64.9096 37.8581C65.0438 38.5651 65.0593 39.2954 65.1496 40.2225C66.7855 38.4641 68.2692 36.9233 68.2744 34.4786C68.277 33.4169 68.4912 32.3111 68.8421 31.3089C69.0563 30.7003 69.6188 30.0244 70.1968 29.7732C71.4715 29.2216 72.5088 30.1643 72.2895 31.542C71.8431 34.3517 71.2883 37.1486 70.958 39.9713C70.7748 41.538 70.8574 43.1565 71.0251 44.7311C71.0844 45.2956 71.7244 46.2046 72.1398 46.2253C72.6972 46.2564 73.6184 45.7048 73.8171 45.1868C74.5757 43.1902 75.275 41.1418 75.6853 39.0494C76.2633 36.092 76.5626 33.0776 76.9883 30.0918C77.1664 28.8435 77.8966 28.1884 79.1533 28.121C80.0822 28.0718 80.7118 28.4499 80.6576 29.4366C80.5777 30.936 80.3635 32.4302 80.2499 33.9296C80.01 37.1408 79.7029 40.352 79.6229 43.5683C79.5945 44.6767 80.0538 45.8446 80.4873 46.9038C80.8589 47.8153 81.6485 47.906 82.3555 47.1886C83.2716 46.2589 83.9347 45.2852 83.7386 43.7832C83.0316 38.3657 83.0368 32.943 84.2702 27.5902C84.5437 26.4015 85.1294 25.2439 85.772 24.1951C86.4145 23.1463 87.4853 22.618 88.7704 22.8615C90.0425 23.1023 90.6127 24.0708 90.9095 25.2025C91.5623 27.7015 91.2682 30.2135 90.5405 32.6089C89.5806 35.776 88.4014 38.8836 87.2299 41.9808C86.5435 43.7962 87.6685 48.2271 89.24 49.3355C90.1896 50.0036 91.152 49.8068 91.9932 49.1671C92.8112 48.5456 93.6705 48.0613 93.4176 46.6034C92.1481 39.3187 92.2771 32.0884 94.8084 25.0419C95.1981 23.9543 95.7451 22.9132 96.3205 21.9085C96.6999 21.2455 97.1514 20.4971 97.7707 20.1268C98.6816 19.583 99.817 18.964 100.777 19.0702C101.972 19.2049 102.113 20.624 102.271 21.678C102.854 25.5806 102.243 29.4236 101.497 33.2356C100.617 37.7364 99.3525 42.1233 97.0947 46.1631C96.9398 46.4428 96.7902 46.8546 96.8805 47.1239C97.6907 49.5141 98.3229 52.008 99.4712 54.2325C100.656 56.5269 101.943 56.6875 104.255 55.5428C104.364 55.4936 104.506 55.5221 104.624 55.5118ZM96.5115 43.4854C99.3551 36.149 100.999 28.9238 100.55 21.0332C97.4146 23.1256 94.891 37.7545 96.5115 43.4854ZM61.1809 34.4242C61.0545 34.0669 60.9926 33.1294 60.5694 32.9145C60.1385 32.6969 59.3282 33.1424 58.7244 33.3962C58.3864 33.5386 58.0922 33.8468 57.8419 34.1368C55.5067 36.8404 54.33 40.0282 54.1288 43.5605C54.0952 44.1303 54.5107 45.0366 54.9571 45.2309C55.3803 45.4121 56.3092 45.0315 56.6833 44.6042C59.1554 41.784 60.6313 38.4822 61.1809 34.4242ZM18.9144 48.0665C18.1609 48.6311 17.4255 49.0817 16.8062 49.6592C15.4308 50.9384 14.0607 52.2307 12.8066 53.6239C12.4453 54.0253 12.1718 55.043 12.4041 55.3227C12.755 55.7448 13.6478 56.0401 14.1948 55.908C15.4979 55.5946 16.8759 55.2088 17.9699 54.4759C20.282 52.9247 20.571 50.6147 18.9144 48.0665ZM27.9612 39.9972C30.5364 38.2492 32.7761 36.6876 33.9941 34.0824C34.7114 32.5442 34.5566 31.037 33.6973 30.5424C32.7839 30.0167 31.4963 30.589 30.5106 32.0469C28.9598 34.3388 28.3689 36.9517 27.9612 39.9972ZM86.4119 38.4304C86.5693 38.4615 86.7293 38.4952 86.8867 38.5263C87.5705 35.934 88.3394 33.3573 88.9071 30.7392C89.2142 29.3278 89.2658 27.8388 89.2477 26.3886C89.2426 25.868 88.6955 25.3527 88.3962 24.8348C88.022 25.2569 87.4518 25.6194 87.3021 26.1115C86.0635 30.1513 86.3319 34.2999 86.4119 38.4304ZM62.097 46.0259C59.8056 48.4472 58.3812 50.9048 57.731 53.7741C57.5581 54.5432 57.3646 55.6568 58.3787 55.8432C58.967 55.952 59.7205 55.2295 60.3759 54.8385C60.5384 54.7426 60.6287 54.494 60.7165 54.3024C61.8699 51.7879 62.0763 49.1153 62.097 46.0259Z" fill="black"/>
<path d="M27.3908 12.8292C27.7779 12.5624 28.1417 12.2568 28.552 12.0393C33.1838 9.5895 38.2258 8.56918 43.3401 7.79487C43.5517 7.7638 43.7788 7.7871 43.9801 7.71977C46.4598 6.8885 48.5086 7.75344 50.3949 9.32018C51.2232 10.0064 52.0773 10.659 52.9314 11.3142C54.4822 12.5054 56.1775 13.1088 58.1902 13.0752C59.114 13.0596 60.0481 13.707 60.9796 14.0463C61.5628 14.2586 62.1382 14.5901 62.7368 14.6367C65.005 14.8154 67.2809 14.875 69.5516 15.0252C71.0173 15.121 72.3126 15.6596 73.2777 16.8224C75.2568 19.2049 77.236 21.5899 79.1868 23.9957C79.4009 24.2599 79.4293 24.6742 79.5454 25.0212C79.1558 25.0912 78.7378 25.2906 78.3791 25.2129C75.1407 24.4955 72.3926 22.789 70.0083 20.5774C67.7866 18.5186 65.3404 17.4491 62.3085 17.7469C61.9963 17.778 61.6531 17.4853 61.3254 17.3429C61.5395 17.0788 61.7305 16.7939 61.973 16.5583C62.1098 16.4262 62.3291 16.3796 62.5098 16.2941C62.4633 16.1517 62.4169 16.0092 62.3704 15.8694C61.3279 16.1983 60.2081 16.3796 59.2559 16.8794C56.4304 18.3632 53.5765 19.7383 50.4155 20.3417C47.8713 20.8286 45.536 20.3676 43.5491 18.6352C43.2137 18.3425 43.0898 17.8039 42.8679 17.3792C43.335 17.3326 43.833 17.1565 44.2665 17.2575C46.4211 17.7547 48.2222 17.0632 49.9098 15.8124C48.3203 12.7489 43.6653 10.1126 40.4424 10.3146C36.9795 10.5347 33.6534 11.3039 30.4202 12.5572C29.5145 12.9094 28.5262 13.0519 27.5766 13.2901C27.5147 13.1399 27.4527 12.9845 27.3908 12.8292Z" fill="black"/>
<path d="M54.668 0.00783148C63.0078 0.025959 69.3194 4.33514 71.4328 10.9491C71.6676 11.6794 71.825 12.4537 71.8766 13.2176C71.8972 13.5336 71.5437 13.8754 71.3579 14.2069C71.1179 13.9531 70.7851 13.7382 70.6586 13.4378C70.0806 12.0575 69.7323 10.5503 68.9891 9.27101C63.6839 0.129545 52.1909 -0.331413 45.5516 4.60446C44.7929 5.169 44.0833 5.79829 43.3144 6.34211C43.0821 6.50526 42.7183 6.48196 42.4138 6.5467C42.3906 6.19709 42.2177 5.74391 42.3725 5.51602C42.7518 4.95665 43.2266 4.43095 43.7582 4.01143C47.1798 1.28971 51.0607 -0.113882 54.668 0.00783148Z" fill="black"/>
<path d="M37.0598 17.3973C37.4933 15.7477 37.8881 14.0877 38.3912 12.4589C38.497 12.1118 38.9976 11.8865 39.315 11.6069C39.4466 12.0264 39.7021 12.4511 39.6866 12.8654C39.604 14.9138 39.315 16.9648 39.3589 19.0081C39.4131 21.5304 40.1614 23.9103 41.4309 26.1167C41.7199 26.6165 42.3727 27.3338 41.4283 27.7015C41.0826 27.8362 40.1949 27.3468 39.9833 26.9246C38.4944 23.9543 37.2533 20.8856 37.0598 17.3973Z" fill="black"/>
<path d="M71.9725 23.0039C70.8294 24.9513 69.9934 26.4792 69.0257 27.919C68.8683 28.1547 68.1303 27.9967 67.6633 28.02C67.751 27.6445 67.7665 27.2328 67.9394 26.9013C68.587 25.6479 69.2579 24.4049 69.9882 23.1981C70.1688 22.9003 70.592 22.6543 70.9403 22.5921C71.2113 22.5403 71.539 22.8148 71.9725 23.0039Z" fill="black"/>
<path d="M96.5117 43.4855C94.8912 37.7546 97.4148 23.1256 100.55 21.0332C100.999 28.9239 99.3553 36.149 96.5117 43.4855Z" fill="white"/>
<path d="M61.1816 34.4243C60.6319 38.4848 59.156 41.7866 56.6865 44.6042C56.3124 45.0315 55.3809 45.4147 54.9603 45.2309C54.5139 45.0366 54.0984 44.1303 54.132 43.5605C54.3332 40.0283 55.5099 36.8378 57.8451 34.1368C58.0954 33.8468 58.387 33.5386 58.7276 33.3962C59.3314 33.1424 60.1417 32.697 60.5726 32.9145C60.9958 33.1269 61.0551 34.0669 61.1816 34.4243Z" fill="white"/>
<path d="M18.9148 48.0665C20.574 50.6147 20.285 52.9247 17.9704 54.4759C16.8763 55.2114 15.4984 55.5946 14.1953 55.908C13.6482 56.0401 12.7528 55.7448 12.4045 55.3227C12.1722 55.043 12.4458 54.0253 12.807 53.6239C14.0637 52.2307 15.4313 50.9384 16.8066 49.6591C17.4259 49.0817 18.1587 48.6311 18.9148 48.0665Z" fill="white"/>
<path d="M27.9611 39.9972C28.3688 36.9518 28.9597 34.3388 30.5105 32.047C31.4962 30.5916 32.7838 30.0193 33.6973 30.5424C34.5566 31.037 34.714 32.5442 33.994 34.0824C32.7761 36.6876 30.5363 38.2466 27.9611 39.9972Z" fill="white"/>
<path d="M86.4119 38.4305C86.3319 34.3 86.0636 30.1513 87.2996 26.1089C87.4492 25.6169 88.0195 25.2543 88.3936 24.8322C88.693 25.3501 89.24 25.8655 89.2452 26.386C89.2632 27.8362 89.2116 29.3252 88.9045 30.7366C88.3369 33.3547 87.5679 35.9314 86.8841 38.5237C86.7267 38.4952 86.5693 38.4615 86.4119 38.4305Z" fill="white"/>
<path d="M62.0968 46.0259C62.0762 49.1154 61.8698 51.7879 60.7163 54.3024C60.6286 54.4967 60.5383 54.7427 60.3757 54.8385C59.7203 55.2295 58.9668 55.9521 58.3785 55.8433C57.3644 55.6542 57.5579 54.5407 57.7308 53.7742C58.3811 50.9048 59.8054 48.4472 62.0968 46.0259Z" fill="white"/>
</g>
<defs>
<filter id="filter0_d_2_247" x="0.691589" y="4.57764e-05" width="108" height="67" filterUnits="userSpaceOnUse" color-interpolation-filters="sRGB">
<feFlood flood-opacity="0" result="BackgroundImageFix"/>
<feColorMatrix in="SourceAlpha" type="matrix" values="0 0 0 0 0 0 0 0 0 0 0 0 0 0 0 0 0 0 127 0" result="hardAlpha"/>
<feOffset dy="4"/>
<feGaussianBlur stdDeviation="2"/>
<feComposite in2="hardAlpha" operator="out"/>
<feColorMatrix type="matrix" values="0 0 0 0 0 0 0 0 0 0 0 0 0 0 0 0 0 0 0.25 0"/>
<feBlend mode="normal" in2="BackgroundImageFix" result="effect1_dropShadow_2_247"/>
<feBlend mode="normal" in="SourceGraphic" in2="effect1_dropShadow_2_247" result="shape"/>
</filter>
<clipPath id="clip0_2_247">
<rect width="100" height="59" fill="white" transform="translate(4.69159 4.57764e-05)"/>
</clipPath>
</defs>
</svg>
