<svg width="117" height="68" viewBox="0 0 117 68" fill="none" xmlns="http://www.w3.org/2000/svg">
<g opacity="0.4" clip-path="url(#clip0_2_208)" filter="url(#filter0_d_2_208)">
<g filter="url(#filter1_d_2_208)">
<path d="M113 60C76.6618 60 40.3285 60 4 60C4 39.9948 4 19.9944 4 -4.57764e-05C40.3382 -4.57764e-05 76.6715 -4.57764e-05 113 -4.57764e-05C113 20.0052 113 40.0056 113 60ZM44.0696 15.3756C43.5767 15.504 43.1383 15.6876 42.6889 15.7212C41.1835 15.8352 39.6745 15.9252 38.1654 15.9696C34.107 16.0884 30.791 18.4632 29.4515 22.2564C28.8799 23.874 28.6231 25.5492 28.5977 27.258C28.5734 28.8372 28.6025 30.4188 28.5819 31.998C28.565 33.354 27.636 34.3344 26.408 34.338C25.0733 34.3416 24.1323 33.396 24.1008 32.0028C24.0863 31.3632 24.0984 30.7224 24.0996 30.0828C24.1032 24.6624 24.1081 19.242 24.1105 13.8216C24.1105 13.4532 24.0657 13.1316 24.624 13.0776C26.4092 12.9048 28.1992 12.7356 29.9674 12.45C31.6715 12.1752 33.4021 11.9052 35.0323 11.37C37.6035 10.5252 38.794 7.90675 38.4355 5.61595C37.4909 5.80315 36.5474 5.99515 35.6027 6.17755C28.6594 7.51555 21.6495 8.25355 14.5766 8.42395C13.1851 8.45755 11.7838 8.41195 10.4019 8.54875C8.42903 8.74315 6.88123 9.69955 6.25267 11.6328C5.6786 13.4016 5.93536 15.1128 7.42018 16.4124C8.9813 17.7804 10.8258 17.9748 12.7818 17.4864C12.7127 17.4276 12.6352 17.4144 12.5589 17.3928C11.3805 17.0604 10.8464 16.3308 10.9942 15.2532C11.1262 14.2884 11.7983 13.782 12.9877 13.7436C14.7426 13.6872 16.4975 13.626 18.2524 13.572C18.4437 13.566 18.6375 13.5876 18.8422 13.5972C18.8591 13.7772 18.8809 13.8936 18.8809 14.0112C18.8809 20.8116 18.8906 27.612 18.8712 34.4124C18.864 37.0476 17.9871 39.348 15.9924 41.166C15.7127 41.4204 15.4244 41.6664 15.1168 41.9376C15.3966 42.264 15.6557 42.5664 15.9089 42.8604C15.9743 42.8424 16.0227 42.8424 16.0506 42.8196C18.6605 40.6488 21.7561 39.6816 25.0612 39.198C26.3135 39.0144 27.5755 38.82 28.7914 38.4828C30.0994 38.1192 31.141 37.2744 32.0142 36.2208C33.6686 37.212 35.4223 37.6308 37.3116 37.3656C39.19 37.1016 40.7814 36.2664 42.0604 34.8792C43.6033 35.9208 45.2371 36.384 47.038 36.2304C48.8426 36.0768 50.3432 35.2848 51.6221 34.0368C52.7048 34.8336 53.8057 35.448 55.1331 35.6472C56.4593 35.8464 57.7116 35.5548 59.0135 35.2176C59.0995 37.356 58.5836 39.2244 57.2925 40.8432C56.0693 42.3792 54.5348 43.362 52.4699 43.236C51.9418 43.2036 51.4211 43.062 50.8131 42.9564C51.0541 43.2468 51.2382 43.506 51.4574 43.7292C53.3964 45.6996 56.6373 46.182 59.3078 44.8944C61.7797 43.7028 63.0853 41.5932 63.7962 39.0864C64.1196 37.944 64.2237 36.7404 64.4381 35.5104C66.8058 36.2004 69.0282 35.784 70.9575 34.1652C74.1403 36.9804 77.4418 37.2636 80.9165 34.7976C81.0291 34.9116 81.126 35.0124 81.2241 35.1096C81.3391 35.2224 81.4518 35.3364 81.5717 35.4444C83.5567 37.2264 85.8602 37.7436 88.4253 37.0716C90.5908 36.504 92.0611 35.07 93.0942 33.1644C93.9686 31.554 94.3634 29.8056 94.4567 27.9888C94.5039 27.0708 94.5003 26.1504 94.5524 25.2324C94.5863 24.63 94.9121 24.1788 95.4437 23.8908C96.7493 23.184 98.1518 24.084 98.1578 25.662C98.1687 28.5024 98.1566 31.3428 98.1348 34.182C98.1227 35.7468 97.4094 36.4788 95.8313 36.6072C95.7344 36.6156 95.6375 36.6324 95.514 36.6492C95.5007 36.8016 95.4825 36.9372 95.4789 37.074C95.4728 37.29 95.4776 37.5072 95.4776 37.7772C99.0359 38.16 102.444 38.9604 105.67 40.4136C106.18 39.3264 106.18 39.3264 105.339 38.6244C104.085 37.578 103.482 36.198 103.458 34.6188C103.406 31.1196 103.39 27.618 103.443 24.1188C103.476 22.02 105.739 20.7468 107.641 21.6768C107.994 21.8496 108.323 22.0716 108.685 22.284C109.474 20.9892 110.253 19.7124 111.022 18.45C109.054 16.3704 106.217 15.8496 103.684 17.0916C103.386 17.238 103.242 17.1816 103.018 16.9728C101.837 15.8712 100.173 15.7692 98.8712 16.7424C98.4776 17.0376 98.1736 17.4528 97.8369 17.8212C97.5135 18.1764 97.235 18.5796 96.8777 18.894C95.9463 19.716 94.7716 19.8012 93.7688 19.0644C92.8798 18.4104 92.0781 17.6412 91.2097 16.9596C88.7959 15.0636 86.1618 14.5224 83.3023 15.8628C81.2301 16.8336 80.019 18.5712 79.233 20.64C78.5984 22.3116 78.4361 24.0576 78.4204 25.824C78.4082 27.1236 78.4506 28.4256 78.3913 29.7228C78.3295 31.0632 77.1196 31.854 75.8225 31.47C74.9566 31.2144 74.4612 30.4632 74.4612 29.376C74.4588 21.2748 74.46 13.1748 74.46 5.07355C74.46 4.83955 74.46 4.60555 74.46 4.30915C72.1032 4.30915 69.8142 4.30915 67.5082 4.30915C67.5082 4.70875 67.5082 5.09515 67.5082 5.47675C68.8417 5.63875 69.2002 6.04435 69.2014 7.36075C69.2026 12.3216 69.2014 17.2812 69.2014 22.242C69.2014 24.2616 69.1941 26.2824 69.205 28.302C69.2086 28.9668 69.0633 29.5704 68.614 30.078C67.9406 30.84 66.853 31.1256 65.9181 30.792C64.9443 30.444 64.3 29.5548 64.2976 28.4856C64.2891 24.4452 64.294 20.4048 64.294 16.3644C64.294 16.1304 64.294 15.8964 64.294 15.6552C62.5051 15.6552 60.7866 15.6552 59.0244 15.6552C59.0244 15.9444 59.0244 16.182 59.0244 16.4196C59.0244 20.3004 59.0244 24.18 59.0232 28.0608C59.0232 28.32 59.0268 28.5816 59.0002 28.8396C58.896 29.8272 58.3062 30.4284 57.3943 30.7404C56.5852 31.0176 55.6854 30.7392 55.0956 30.0768C54.6366 29.5632 54.5227 28.9464 54.5239 28.2924C54.53 26.052 54.5433 23.8116 54.5409 21.5724C54.5397 20.3928 54.5893 19.2072 54.4803 18.0372C54.318 16.302 52.5692 14.9868 50.7743 15.1428C48.9746 15.2988 47.6024 16.818 47.669 18.5784C48.7554 18.2028 49.2834 18.4692 49.2871 19.4364C49.298 22.5372 49.2968 25.6368 49.2859 28.7376C49.2834 29.6052 48.9407 30.342 48.2237 30.858C47.365 31.4748 46.4228 31.5564 45.483 31.0752C44.5407 30.5928 44.0793 29.7744 44.0769 28.7292C44.0672 25.2684 44.0696 21.8088 44.0684 18.348C44.0696 17.37 44.0696 16.3932 44.0696 15.3756ZM17.9254 55.1352C17.9508 55.1988 17.975 55.2624 18.0004 55.326C18.6908 54.8484 19.3545 55.128 20.023 55.3092C20.4106 55.4148 20.8066 55.4916 21.1905 55.608C21.784 55.7868 22.0795 55.3692 22.3968 55.1652C21.5066 54.9552 20.6225 54.7452 19.7372 54.5364C21.9632 53.7408 22.7359 52.7736 22.4937 50.994C22.3084 49.6296 21.3528 48.9072 19.6742 48.8616C18.1652 48.822 17.0824 49.626 16.8136 50.9856C16.4841 52.6524 17.1151 53.6664 18.9512 54.3552C18.5963 54.6264 18.2608 54.8808 17.9254 55.1352ZM97.2955 51.4056C97.7339 52.1112 98.1494 52.7676 98.5514 53.4324C99.0201 54.2076 99.4125 54.3432 100.298 54.0528C99.7044 53.226 99.1001 52.3836 98.4764 51.5148C98.7258 51.3456 98.8966 51.246 99.048 51.1224C99.4973 50.7552 99.7601 50.2992 99.5918 49.7064C99.4283 49.1316 98.9681 48.9588 98.4231 48.9576C97.396 48.9552 96.3702 48.9636 95.3432 48.9756C95.3057 48.9756 95.2693 49.0488 95.1773 49.1448C96.0614 49.23 95.8834 49.8696 95.8931 50.388C95.9076 51.186 95.9027 51.9864 95.8676 52.7832C95.8458 53.274 96.0469 53.904 95.2548 54.0528C96.0335 54.0528 96.8111 54.0528 97.5898 54.0528C97.6383 53.9988 97.6867 53.9448 97.7339 53.892C96.8898 53.9388 97.0121 53.424 97.0061 52.9896C96.9988 52.5108 96.9988 52.0308 96.9976 51.552C96.9964 50.82 96.9976 50.088 96.9976 49.374C97.9556 49.2372 98.4146 49.4724 98.4982 50.0736C98.6011 50.826 98.1942 51.2892 97.2955 51.4056ZM68.6128 50.4612C68.6576 50.274 68.6879 50.088 68.7472 49.9092C68.9301 49.3584 68.6891 49.0464 68.155 49.014C67.3181 48.9636 66.4594 48.8664 65.6431 48.996C64.3908 49.1952 63.6266 50.1888 63.5939 51.3924C63.5552 52.8072 64.2382 53.7816 65.5123 54.1656C66.5902 54.4908 67.6281 54.2976 68.6491 53.9472C68.7678 53.9064 68.8732 53.6976 68.8998 53.5512C68.9894 53.076 69.0391 52.5948 69.0984 52.1592C68.4711 52.1592 67.7335 52.1592 66.9959 52.1592C67.1267 52.3344 67.2672 52.3944 67.4126 52.4028C67.8304 52.4292 67.8256 52.7304 67.8074 53.0088C67.7892 53.2992 67.9394 53.6592 67.4671 53.79C66.3916 54.0876 65.304 53.6352 64.971 52.5792C64.7869 51.996 64.7663 51.3132 64.8632 50.7048C64.9976 49.8612 65.7219 49.3524 66.5902 49.2924C67.6512 49.2204 67.9866 49.4232 68.4481 50.406C68.4565 50.4312 68.5159 50.4324 68.6128 50.4612ZM74.5 48.9672C74.7676 49.2576 75.1504 49.4796 75.1649 49.722C75.2206 50.676 75.2 51.6396 75.131 52.5936C75.0765 53.3556 74.5981 53.6724 73.7334 53.6472C72.8783 53.622 72.4338 53.2584 72.4011 52.5012C72.3709 51.7824 72.3793 51.0624 72.3866 50.3436C72.3914 49.8336 72.2473 49.242 72.9958 49.0728C73.0055 49.0704 72.9897 48.9624 72.9885 48.9324C72.1965 48.9324 71.4153 48.9324 70.6341 48.9324C71.5303 49.278 71.2203 50.016 71.2457 50.61C71.276 51.288 71.2469 51.9684 71.2591 52.6476C71.2712 53.3076 71.5667 53.8284 72.2001 54.0492C72.6482 54.2064 73.1435 54.3 73.6183 54.3036C74.9505 54.3132 75.6602 53.586 75.6881 52.2612C75.6978 51.8016 75.659 51.3384 75.7063 50.8836C75.7753 50.2128 75.4628 49.4196 76.2694 48.882C75.6905 48.9084 75.1128 48.9372 74.5 48.9672ZM23.9337 48.924C23.8961 48.9804 23.8574 49.0368 23.8198 49.0944C24.693 49.1772 24.5719 49.7664 24.5756 50.2884C24.5816 51.108 24.5731 51.9288 24.584 52.7484C24.5925 53.4024 24.9328 53.8644 25.5408 54.0672C25.9744 54.2112 26.4467 54.3 26.9033 54.3072C28.181 54.3252 28.8908 53.6532 28.9731 52.3908C29.0143 51.7524 28.9961 51.1104 29.0361 50.4732C29.07 49.9296 28.8181 49.2696 29.6998 49.0224C29.6574 48.972 29.615 48.9228 29.5714 48.8724C28.9901 48.9096 28.4087 48.9456 27.7341 48.9888C28.4802 49.548 28.4814 49.548 28.4802 50.5284C28.4802 51.1488 28.4911 51.7692 28.4705 52.3884C28.4414 53.25 28.0079 53.6448 27.1237 53.6496C26.1597 53.6556 25.7019 53.2536 25.6704 52.3584C25.6547 51.8988 25.6268 51.4344 25.6728 50.9796C25.7419 50.2788 25.3119 49.4232 26.2578 48.9276C25.4827 48.924 24.7076 48.924 23.9337 48.924ZM32.0384 54.126C31.1798 53.8872 31.4886 53.3808 31.6836 52.9032C31.9173 52.3308 32.4175 52.6152 32.7881 52.602C33.8745 52.5612 33.9811 52.6824 34.101 53.7696C33.9132 53.8716 33.7279 53.9724 33.4118 54.1428C34.388 54.1428 35.1716 54.1428 35.954 54.1428C35.1716 53.6856 35.1013 52.8528 34.784 52.1832C34.3226 51.21 33.9375 50.2032 33.4918 49.2216C33.4264 49.0776 33.2217 48.93 33.0667 48.9132C32.9589 48.9012 32.7821 49.0884 32.713 49.224C31.8895 50.8512 31.64 52.7508 30.3526 54.1248C30.8988 54.126 31.468 54.126 32.0384 54.126ZM93.7082 54.168C93.7373 54.1212 93.7676 54.0756 93.7966 54.0288C92.927 53.7552 92.8822 52.9464 92.5867 52.314C92.1217 51.3204 91.7196 50.2968 91.2642 49.2972C91.1879 49.1304 90.9759 48.918 90.8294 48.9192C90.6865 48.9216 90.4867 49.146 90.414 49.3152C89.9804 50.3244 89.5953 51.3528 89.1569 52.3596C88.8844 52.986 88.7984 53.7408 87.8985 54.0924C88.6252 54.0924 89.1811 54.0924 89.737 54.0924C89.7358 54.054 89.7346 54.0144 89.7346 53.976C89.5602 53.9016 89.3858 53.8284 89.221 53.7588C89.3785 52.6632 89.4439 52.59 90.2251 52.5864C91.6869 52.5804 91.6869 52.5804 91.8613 53.7576C91.6796 53.8644 91.4979 53.9724 91.3163 54.0792C91.3381 54.1092 91.3587 54.1392 91.3805 54.168C92.158 54.168 92.9331 54.168 93.7082 54.168ZM105.074 50.2752C105.381 49.7112 105.358 49.188 105.008 49.0728C104.198 48.8076 103.381 48.7812 102.594 49.1532C102.062 49.404 101.749 50.0304 101.812 50.658C101.874 51.2736 102.171 51.7056 102.807 51.8604C103.237 51.9648 103.676 52.0464 104.092 52.1868C104.678 52.3848 104.864 53.0244 104.492 53.4996C104.115 53.9808 103.578 53.9976 103.058 53.8752C102.6 53.7672 102.18 53.544 102.201 52.9512C102.203 52.8624 102.118 52.7712 102.075 52.6812C102.026 52.6848 101.979 52.6884 101.93 52.692C101.888 53.1204 101.847 53.5476 101.802 53.9976C102.913 54.4632 103.976 54.5784 104.99 53.8644C105.601 53.4348 105.742 52.8156 105.606 52.11C105.478 51.4452 104.996 51.222 104.401 51.1212C104.045 51.0612 103.69 50.9856 103.335 50.9196C102.876 50.8332 102.622 50.4948 102.733 50.1084C102.822 49.8024 103.133 49.4328 103.427 49.3344C104.194 49.0764 104.68 49.4028 104.935 50.184C104.949 50.2248 105.026 50.2452 105.074 50.2752ZM52.327 49.0092C50.6544 49.0092 49.0582 49.0092 47.428 49.0092C47.4583 49.416 47.4849 49.776 47.5116 50.1372C47.5697 50.1468 47.6279 50.1564 47.686 50.166C47.7587 49.9464 47.8301 49.7268 47.9197 49.4544C48.3497 49.4544 48.7966 49.4544 49.3052 49.4544C49.3052 50.5584 49.3113 51.612 49.3028 52.6668C49.298 53.2284 49.5123 53.9076 48.6258 54.0996C49.4445 54.0996 50.2632 54.0996 51.0819 54.0996C51.1098 54.0492 51.1389 53.9988 51.1667 53.9484C50.4461 53.9364 50.4352 53.4924 50.4437 53.0076C50.4582 52.17 50.4461 51.3312 50.4461 50.4924C50.4461 50.1456 50.4461 49.7976 50.4461 49.4628C51.375 49.3932 51.375 49.3932 52.2688 50.22C52.2882 49.7928 52.3064 49.4316 52.327 49.0092ZM58.9493 49.0536C58.8985 49.0056 58.8476 48.9564 58.7967 48.9084C57.645 49.2504 57.7285 50.6748 56.8626 51.27C56.5138 50.664 56.1844 50.0484 55.8138 49.458C55.3705 48.7512 54.5796 48.6876 53.939 49.2768C54.1448 49.4148 54.4113 49.5096 54.5445 49.698C55.0386 50.4012 55.5873 51.0924 55.9191 51.8712C56.1286 52.3644 56.0293 53.0076 55.976 53.574C55.9627 53.718 55.5958 53.8284 55.3959 53.9616C55.3778 53.9736 55.3935 54.036 55.3935 54.0912C56.2086 54.0912 57.0237 54.0912 57.8872 54.0912C57.6026 53.856 57.2283 53.6964 57.2114 53.5068C57.1387 52.7028 57.0188 51.8772 57.5565 51.1392C58.0446 50.4612 58.4867 49.7496 58.9493 49.0536ZM83.9394 49.4472C83.9394 50.622 83.9261 51.7752 83.9454 52.9272C83.9539 53.4552 83.937 53.9268 83.26 54.096C84.0799 54.096 84.8998 54.096 85.7246 54.096C85.4775 53.856 85.1287 53.6748 85.1214 53.4816C85.073 52.1496 85.096 50.814 85.096 49.4328C85.5114 49.4328 85.9062 49.3416 86.2187 49.4616C86.4706 49.5588 86.6208 49.9116 86.8884 50.238C86.8884 49.7688 86.8884 49.3932 86.8884 49.0116C85.2789 49.0116 83.6814 49.0116 82.0501 49.0116C82.0864 49.4196 82.1179 49.7796 82.1494 50.1396C82.1942 50.1744 82.2378 50.2104 82.2826 50.2452C82.4534 49.14 83.1946 49.4112 83.9394 49.4472ZM39.2082 53.7444C39.2082 52.5156 39.2046 51.4008 39.2106 50.2848C39.2131 49.8132 39.0992 49.2696 39.8029 49.1484C39.8089 49.1472 39.8041 49.0752 39.8041 49.0296C39.0072 49.0296 38.2187 49.0296 37.4315 49.0296C37.3879 49.0776 37.3431 49.1256 37.2995 49.1724C38.2357 49.2408 38.0625 49.8648 38.0746 50.382C38.0891 51.0408 38.0988 51.7008 38.0686 52.3584C38.0395 52.9812 38.2466 53.658 37.5986 54.2232C38.8255 54.2232 39.93 54.234 41.0346 54.2112C41.1944 54.2076 41.4585 54.0696 41.4875 53.9496C41.5735 53.5956 41.5662 53.2188 41.6002 52.7832C41.0406 52.8984 41.3591 53.7528 40.6785 53.6772C40.2292 53.628 39.7653 53.7144 39.2082 53.7444ZM43.395 48.9804C43.3623 49.032 43.3284 49.0836 43.2957 49.1352C44.112 49.1952 43.9945 49.7448 43.9957 50.2284C43.9969 51.108 43.9848 51.9888 43.9909 52.8684C43.9945 53.3424 44.0418 53.8248 43.4011 53.9508C43.3962 53.952 43.4047 54.0228 43.4071 54.0672C44.1847 54.0672 44.961 54.0672 45.7167 54.0672C45.5048 53.8524 45.1669 53.67 45.1608 53.4768C45.1148 52.1028 45.1366 50.7264 45.1366 49.3932C45.4067 49.2744 45.5992 49.1904 45.7906 49.1064C45.7724 49.0644 45.7555 49.0224 45.7373 48.9804C44.9561 48.9804 44.175 48.9804 43.395 48.9804ZM77.9056 53.9112C77.9517 53.9592 77.9977 54.006 78.0437 54.054C78.8224 54.054 79.6024 54.054 80.3388 54.054C80.1341 53.8428 79.7962 53.6568 79.7901 53.46C79.7429 52.0908 79.7659 50.7192 79.7659 49.3872C80.0469 49.2684 80.2382 49.188 80.4284 49.1076C80.4114 49.0668 80.3933 49.026 80.3763 48.9852C79.5915 48.9852 78.8055 48.9852 78.0207 48.9852C78.7982 49.2456 78.6299 49.8576 78.6323 50.3844C78.6359 51.2016 78.6323 52.0188 78.625 52.8372C78.6202 53.3136 78.7619 53.8716 77.9056 53.9112ZM108.543 39.252C107.815 39.2508 107.278 39.8088 107.287 40.5576C107.297 41.2848 107.822 41.8224 108.525 41.8224C109.19 41.8224 109.788 41.2368 109.809 40.5648C109.831 39.8556 109.249 39.2532 108.543 39.252Z" fill="white"/>
<path d="M44.07 15.3756C44.07 16.3932 44.07 17.37 44.07 18.348C44.0712 21.8088 44.0676 25.2684 44.0785 28.7292C44.0821 29.7744 44.5424 30.5928 45.4846 31.0752C46.4244 31.5564 47.3667 31.4748 48.2253 30.858C48.9423 30.342 49.2851 29.6052 49.2875 28.7376C49.2984 25.6368 49.2996 22.5372 49.2887 19.4364C49.2851 18.4692 48.757 18.2028 47.6707 18.5784C47.6028 16.818 48.9762 15.2988 50.7759 15.1428C52.5708 14.9868 54.3197 16.302 54.4819 18.0372C54.5909 19.2072 54.5413 20.394 54.5425 21.5724C54.5449 23.8128 54.5316 26.0532 54.5255 28.2924C54.5243 28.9464 54.6382 29.5632 55.0972 30.0768C55.6882 30.738 56.5869 31.0164 57.3959 30.7404C58.3078 30.4284 58.8977 29.826 59.0018 28.8396C59.0297 28.5816 59.0248 28.32 59.0248 28.0608C59.026 24.18 59.026 20.3004 59.026 16.4196C59.026 16.182 59.026 15.9444 59.026 15.6552C60.7882 15.6552 62.5068 15.6552 64.2956 15.6552C64.2956 15.8964 64.2956 16.1304 64.2956 16.3644C64.2956 20.4048 64.2907 24.4452 64.2992 28.4856C64.3016 29.5548 64.9459 30.444 65.9197 30.792C66.8547 31.1256 67.9422 30.84 68.6156 30.078C69.0661 29.5692 69.2103 28.9668 69.2066 28.302C69.1957 26.2824 69.203 24.2616 69.203 22.242C69.203 17.2812 69.203 12.3216 69.203 7.36076C69.203 6.04436 68.8445 5.63876 67.5099 5.47676C67.5099 5.09516 67.5099 4.70756 67.5099 4.30916C69.8158 4.30916 72.1048 4.30916 74.4616 4.30916C74.4616 4.60556 74.4616 4.83956 74.4616 5.07356C74.4616 13.1748 74.4604 21.2748 74.4629 29.376C74.4629 30.4632 74.9582 31.2144 75.8241 31.47C77.1212 31.8528 78.3324 31.0632 78.3929 29.7228C78.4523 28.4256 78.4099 27.1236 78.422 25.824C78.4377 24.0576 78.6 22.3116 79.2346 20.64C80.0194 18.5712 81.2318 16.8348 83.304 15.8628C86.1634 14.5224 88.7976 15.0636 91.2113 16.9596C92.0797 17.6424 92.8814 18.4116 93.7704 19.0644C94.7732 19.8012 95.9468 19.716 96.8793 18.894C97.2366 18.5784 97.5151 18.1752 97.8385 17.8212C98.1752 17.4528 98.478 17.0376 98.8728 16.7424C100.174 15.7692 101.839 15.8724 103.02 16.9728C103.242 17.1816 103.387 17.238 103.686 17.0916C106.218 15.8496 109.056 16.3716 111.024 18.45C110.254 19.7124 109.476 20.9892 108.686 22.284C108.324 22.0716 107.996 21.8496 107.642 21.6768C105.74 20.7468 103.477 22.02 103.445 24.1188C103.39 27.618 103.407 31.1196 103.459 34.6188C103.482 36.198 104.087 37.578 105.34 38.6244C106.182 39.3276 106.182 39.3276 105.672 40.4136C102.446 38.9604 99.0375 38.16 95.4793 37.7772C95.4793 37.5072 95.4756 37.2912 95.4805 37.074C95.4841 36.9384 95.5023 36.8028 95.5156 36.6492C95.6391 36.6324 95.736 36.6156 95.8329 36.6072C97.411 36.4788 98.1243 35.7468 98.1364 34.182C98.1582 31.3416 98.1704 28.5012 98.1595 25.662C98.1534 24.084 96.7509 23.184 95.4454 23.8908C94.9137 24.1788 94.5879 24.6312 94.554 25.2324C94.5019 26.1504 94.5055 27.0708 94.4583 27.9888C94.365 29.8056 93.9702 31.554 93.0958 33.1644C92.0615 35.0688 90.5924 36.504 88.427 37.0716C85.8618 37.7436 83.5571 37.2264 81.5733 35.4444C81.4534 35.3376 81.3408 35.2224 81.2257 35.1096C81.1264 35.0124 81.0295 34.9116 80.9181 34.7976C77.4434 37.2636 74.1419 36.9792 70.9591 34.1652C69.0298 35.784 66.8086 36.2004 64.4397 35.5104C64.2265 36.7416 64.1224 37.944 63.7978 39.0864C63.0869 41.5932 61.7813 43.7028 59.3094 44.8944C56.6377 46.182 53.398 45.7008 51.459 43.7292C51.2386 43.506 51.0545 43.2468 50.8147 42.9564C51.4227 43.062 51.9435 43.2048 52.4715 43.236C54.5364 43.362 56.0709 42.378 57.2941 40.8432C58.584 39.2244 59.1011 37.3572 59.0151 35.2176C57.7132 35.5548 56.4597 35.8476 55.1347 35.6472C53.8074 35.4468 52.7065 34.8324 51.6237 34.0368C50.3448 35.2848 48.8442 36.0768 47.0397 36.2304C45.2387 36.3828 43.605 35.9208 42.062 34.8792C40.7843 36.2652 39.1917 37.1004 37.3132 37.3656C35.4239 37.6308 33.6702 37.212 32.0158 36.2208C31.1426 37.2756 30.1011 38.1204 28.7931 38.4828C27.5771 38.82 26.3151 39.0144 25.0628 39.198C21.7577 39.6816 18.6621 40.6488 16.0522 42.8196C16.0243 42.8424 15.9771 42.8424 15.9105 42.8604C15.6586 42.5664 15.3994 42.264 15.1184 41.9376C15.426 41.6676 15.7143 41.4216 15.994 41.166C17.9875 39.348 18.8644 37.0476 18.8729 34.4124C18.8934 27.612 18.8825 20.8116 18.8825 14.0112C18.8825 13.8936 18.8607 13.7772 18.8438 13.5972C18.6391 13.5876 18.4465 13.566 18.254 13.572C16.4991 13.6272 14.7442 13.6872 12.9893 13.7436C11.8 13.782 11.1278 14.2884 10.9958 15.2532C10.848 16.3296 11.3821 17.0604 12.5605 17.3928C12.6368 17.4144 12.7144 17.4276 12.7834 17.4864C10.8274 17.9748 8.98171 17.7792 7.4218 16.4124C5.93819 15.1116 5.68022 13.4016 6.25429 11.6328C6.88164 9.69956 8.43065 8.74316 10.4036 8.54876C11.7854 8.41196 13.1855 8.45756 14.5783 8.42396C21.6499 8.25356 28.6598 7.51556 35.6044 6.17516C36.549 5.99276 37.4913 5.80076 38.4371 5.61356C38.7956 7.90436 37.6051 10.5228 35.0339 11.3676C33.4026 11.9028 31.6731 12.1728 29.9691 12.4476C28.1996 12.7332 26.4108 12.9024 24.6256 13.0752C24.0673 13.1292 24.1121 13.4508 24.1121 13.8192C24.1097 19.2396 24.1049 24.66 24.1012 30.0804C24.1012 30.72 24.0879 31.3608 24.1024 32.0004C24.1339 33.3948 25.075 34.3392 26.4096 34.3356C27.6377 34.3332 28.5666 33.3528 28.5835 31.9956C28.6041 30.4152 28.5751 28.8348 28.5993 27.2556C28.6247 25.548 28.8815 23.8716 29.4531 22.254C30.7926 18.4608 34.1098 16.0848 38.1671 15.9672C39.6761 15.9228 41.1852 15.8328 42.6906 15.7188C43.1399 15.6864 43.5783 15.5028 44.07 15.3756Z" fill="black"/>
<path d="M83.5966 26.1792C83.6293 26.1828 83.6608 26.1852 83.6935 26.1888C83.6935 26.6688 83.6669 27.15 83.6984 27.6264C83.7783 28.8252 83.8873 30.024 84.5898 31.0632C85.5344 32.46 87.1985 32.5416 88.2219 31.2036C88.5404 30.7872 88.779 30.2652 88.9037 29.7564C89.4088 27.6912 89.3785 25.59 89.0563 23.5092C88.9389 22.746 88.647 21.9432 88.2134 21.3072C87.3196 19.998 85.6349 20.0112 84.7048 21.2964C84.3403 21.7992 84.0714 22.428 83.9539 23.0352C83.7541 24.0672 83.7081 25.1292 83.5966 26.1792Z" fill="black"/>
<path d="M38.8291 20.9244C36.7993 20.8764 35.0904 22.0656 34.3904 23.9039C33.7267 25.6475 33.6226 27.4607 33.8333 29.2763C33.9229 30.0455 34.2039 30.8471 34.6036 31.5143C35.4816 32.9771 37.5369 32.9435 38.3895 31.4663C38.685 30.9551 38.8388 30.2963 38.8473 29.7023C38.8848 27.2051 38.8424 24.7067 38.8291 22.2084C38.8279 21.7932 38.8291 21.378 38.8291 20.9244Z" fill="black"/>
<path d="M17.9256 55.1352C18.2611 54.8808 18.5965 54.6264 18.9526 54.3564C17.1166 53.6664 16.4856 52.6536 16.815 50.9868C17.0839 49.6272 18.1666 48.822 19.6756 48.8628C21.353 48.9072 22.3086 49.6296 22.4951 50.9952C22.7373 52.7748 21.9646 53.7432 19.7386 54.5376C20.6239 54.7464 21.5093 54.9564 22.3982 55.1664C22.0809 55.3692 21.7842 55.788 21.1919 55.6092C20.808 55.4928 20.412 55.416 20.0244 55.3104C19.3559 55.1292 18.691 54.8496 18.0019 55.3272C17.9752 55.2624 17.9498 55.1988 17.9256 55.1352ZM21.4063 51.6408C21.3034 51.18 21.2501 50.676 21.0733 50.22C20.8395 49.62 20.3757 49.2672 19.6744 49.278C18.9562 49.2888 18.4015 49.56 18.1678 50.2476C17.842 51.2088 17.8626 52.1796 18.3361 53.0964C18.6413 53.6868 19.1742 53.9376 19.8379 53.8992C20.4943 53.862 20.9376 53.5116 21.1387 52.908C21.2682 52.5168 21.3131 52.0956 21.4063 51.6408Z" fill="black"/>
<path d="M97.296 51.4055C98.1946 51.2891 98.6028 50.8259 98.4986 50.0735C98.415 49.4723 97.9572 49.2371 96.998 49.3739C96.998 50.0879 96.9968 50.8199 96.998 51.5519C96.9992 52.0307 96.9992 52.5107 97.0065 52.9895C97.0126 53.4239 96.8902 53.9387 97.7344 53.8919C97.6859 53.9459 97.6375 53.9999 97.5903 54.0527C96.8115 54.0527 96.034 54.0527 95.2552 54.0527C96.0473 53.9039 95.8463 53.2739 95.8681 52.7831C95.9032 51.9863 95.908 51.1859 95.8935 50.3879C95.8838 49.8695 96.0618 49.2299 95.1777 49.1447C95.2686 49.0487 95.3061 48.9755 95.3437 48.9755C96.3707 48.9647 97.3965 48.9551 98.4235 48.9575C98.9685 48.9587 99.4287 49.1303 99.5922 49.7063C99.7606 50.2991 99.4978 50.7539 99.0484 51.1223C98.8971 51.2459 98.7263 51.3455 98.4768 51.5147C99.1005 52.3835 99.7049 53.2259 100.298 54.0527C99.413 54.3431 99.0206 54.2075 98.5519 53.4323C98.1498 52.7675 97.7332 52.1111 97.296 51.4055Z" fill="black"/>
<path d="M68.6123 50.4612C68.5154 50.4324 68.4561 50.4312 68.4464 50.4084C67.985 49.4256 67.6495 49.2228 66.5886 49.2948C65.7214 49.3536 64.996 49.8624 64.8615 50.7072C64.7646 51.3156 64.7852 51.9984 64.9693 52.5816C65.3024 53.6376 66.39 54.09 67.4654 53.7924C67.9365 53.6616 67.7876 53.3028 67.8057 53.0112C67.8227 52.7316 67.8288 52.4316 67.4109 52.4052C67.2668 52.3956 67.1263 52.3368 66.9943 52.1616C67.7319 52.1616 68.4694 52.1616 69.0968 52.1616C69.0374 52.5972 68.9878 53.0784 68.8982 53.5536C68.8703 53.7 68.7649 53.9088 68.6475 53.9496C67.6253 54.3 66.5874 54.4932 65.5107 54.168C64.2378 53.784 63.5547 52.8084 63.5923 51.3948C63.625 50.1912 64.388 49.1976 65.6415 48.9984C66.4578 48.8688 67.3165 48.966 68.1533 49.0164C68.6886 49.0488 68.9296 49.3608 68.7456 49.9116C68.6874 50.088 68.6559 50.274 68.6123 50.4612Z" fill="black"/>
<path d="M74.5 48.9671C75.1116 48.9371 75.6905 48.9095 76.2682 48.8807C75.4628 49.4184 75.7753 50.2116 75.705 50.8824C75.6578 51.3372 75.6966 51.8004 75.6869 52.26C75.6602 53.5848 74.9505 54.312 73.6171 54.3024C73.1423 54.2988 72.647 54.2052 72.1989 54.048C71.5667 53.8272 71.27 53.3064 71.2578 52.6464C71.2457 51.9672 71.2736 51.2868 71.2445 50.6088C71.2179 50.0148 71.5279 49.2768 70.6329 48.9312C71.4141 48.9312 72.1952 48.9312 72.9873 48.9312C72.9897 48.9612 73.0043 49.0703 72.9946 49.0715C72.2461 49.2407 72.3902 49.8324 72.3854 50.3424C72.3793 51.0612 72.3696 51.7824 72.3999 52.5C72.4326 53.2572 72.8771 53.622 73.7321 53.646C74.5969 53.6712 75.0741 53.3544 75.1298 52.5924C75.1988 51.6384 75.2194 50.6748 75.1637 49.7208C75.1504 49.4796 74.7676 49.2575 74.5 48.9671Z" fill="black"/>
<path d="M23.9342 48.9239C24.7093 48.9239 25.4832 48.9239 26.2583 48.9239C25.3136 49.4195 25.7436 50.2763 25.6733 50.9759C25.6285 51.4319 25.6551 51.8951 25.6709 52.3547C25.7024 53.2511 26.1602 53.6519 27.1242 53.6459C28.0083 53.6411 28.4419 53.2463 28.471 52.3847C28.4916 51.7655 28.4795 51.1451 28.4807 50.5247C28.4819 49.5455 28.4807 49.5455 27.7346 48.9851C28.4092 48.9419 28.9905 48.9059 29.5719 48.8687C29.6143 48.9191 29.6567 48.9683 29.7003 49.0187C28.8186 49.2659 29.0705 49.9259 29.0366 50.4695C28.9966 51.1079 29.0148 51.7499 28.9736 52.3871C28.8912 53.6495 28.1815 54.3215 26.9038 54.3035C26.4472 54.2975 25.9749 54.2087 25.5413 54.0635C24.9345 53.8607 24.5942 53.3987 24.5845 52.7447C24.5736 51.9251 24.5809 51.1043 24.576 50.2847C24.5724 49.7627 24.6935 49.1735 23.8203 49.0907C23.8579 49.0379 23.8954 48.9815 23.9342 48.9239Z" fill="black"/>
<path d="M32.0382 54.1259C31.4689 54.1259 30.8997 54.1259 30.3535 54.1259C31.6409 52.7507 31.8904 50.8511 32.714 49.2251C32.783 49.0883 32.9598 48.9023 33.0676 48.9143C33.2226 48.9311 33.4273 49.0787 33.4927 49.2227C33.9372 50.2031 34.3235 51.2111 34.785 52.1843C35.1023 52.8539 35.1725 53.6867 35.9549 54.1439C35.1725 54.1439 34.3889 54.1439 33.4128 54.1439C33.7289 53.9723 33.9142 53.8715 34.1019 53.7707C33.982 52.6835 33.8754 52.5623 32.7891 52.6031C32.4185 52.6175 31.9183 52.3319 31.6845 52.9043C31.4883 53.3807 31.1783 53.8871 32.0382 54.1259ZM32.7673 50.2223C32.4826 50.9303 32.2537 51.5015 32.0067 52.1171C32.5771 52.1171 33.0349 52.1171 33.563 52.1171C33.2941 51.4787 33.0591 50.9183 32.7673 50.2223Z" fill="black"/>
<path d="M93.7086 54.168C92.9335 54.168 92.1584 54.168 91.3833 54.168C91.3615 54.138 91.3409 54.108 91.3191 54.0792C91.5008 53.9724 91.6825 53.8644 91.8653 53.7576C91.6897 52.5816 91.6897 52.5816 90.2279 52.5864C89.4467 52.59 89.3813 52.6632 89.2239 53.7588C89.3886 53.8284 89.563 53.9028 89.7374 53.976C89.7386 54.0144 89.7398 54.054 89.7398 54.0924C89.1839 54.0924 88.6292 54.0924 87.9014 54.0924C88.8012 53.7408 88.8872 52.9848 89.1597 52.3596C89.5981 51.3528 89.9833 50.3244 90.4168 49.3152C90.4895 49.146 90.6881 48.9216 90.8323 48.9192C90.9788 48.9168 91.1907 49.1304 91.267 49.2972C91.7224 50.2968 92.1233 51.3192 92.5896 52.314C92.8863 52.9464 92.9311 53.7552 93.7995 54.0288C93.768 54.0756 93.7389 54.1212 93.7086 54.168ZM90.567 50.394C90.5174 50.3976 90.4677 50.4024 90.4168 50.406C90.1916 50.9652 89.9663 51.5256 89.7277 52.1172C90.2824 52.1172 90.7438 52.1172 91.2804 52.1172C91.02 51.4884 90.7935 50.9412 90.567 50.394Z" fill="black"/>
<path d="M105.074 50.2751C105.026 50.2451 104.948 50.2259 104.935 50.1851C104.679 49.4027 104.194 49.0776 103.427 49.3356C103.133 49.4352 102.822 49.8035 102.733 50.1095C102.622 50.4971 102.876 50.8355 103.335 50.9207C103.691 50.9867 104.045 51.0623 104.401 51.1223C104.997 51.2231 105.479 51.4464 105.606 52.1112C105.742 52.8179 105.601 53.4359 104.989 53.8655C103.974 54.5783 102.912 54.4643 101.802 53.9987C101.845 53.5487 101.888 53.1215 101.93 52.6931C101.979 52.6895 102.026 52.6859 102.074 52.6823C102.118 52.7723 102.204 52.8635 102.2 52.9523C102.18 53.5451 102.6 53.7683 103.058 53.8763C103.577 53.9987 104.114 53.9819 104.492 53.5007C104.863 53.0255 104.679 52.3859 104.092 52.1879C103.674 52.0475 103.236 51.9659 102.807 51.8615C102.171 51.7067 101.873 51.2748 101.811 50.6592C101.747 50.0316 102.061 49.4052 102.594 49.1544C103.381 48.7824 104.197 48.8088 105.008 49.074C105.358 49.1868 105.379 49.7099 105.074 50.2751Z" fill="black"/>
<path d="M52.327 49.0092C52.3064 49.4316 52.2894 49.7928 52.2676 50.2212C51.3738 49.3944 51.3738 49.3944 50.4449 49.464C50.4449 49.7988 50.4449 50.1456 50.4449 50.4936C50.4461 51.3324 50.457 52.17 50.4425 53.0088C50.434 53.4936 50.4449 53.9376 51.1655 53.9496C51.1377 54 51.1086 54.0504 51.0807 54.1008C50.262 54.1008 49.4433 54.1008 48.6246 54.1008C49.5099 53.9088 49.2968 53.2296 49.3016 52.668C49.3101 51.6144 49.304 50.5596 49.304 49.4556C48.7954 49.4556 48.3485 49.4556 47.9185 49.4556C47.8289 49.728 47.7562 49.9476 47.6848 50.1672C47.6267 50.1576 47.5685 50.148 47.5104 50.1384C47.4837 49.7772 47.4571 49.416 47.4268 49.0104C49.0582 49.0092 50.6544 49.0092 52.327 49.0092Z" fill="black"/>
<path d="M58.9495 49.0535C58.4857 49.7495 58.0448 50.4611 57.5531 51.1367C57.0154 51.8759 57.1353 52.7015 57.208 53.5043C57.2249 53.6951 57.5992 53.8535 57.8838 54.0887C57.0202 54.0887 56.2064 54.0887 55.3901 54.0887C55.3901 54.0347 55.3743 53.9711 55.3925 53.9591C55.5923 53.8259 55.9593 53.7167 55.9726 53.5715C56.0259 53.0039 56.1252 52.3619 55.9157 51.8687C55.5851 51.0899 55.0352 50.3987 54.5411 49.6955C54.4091 49.5071 54.1414 49.4123 53.9355 49.2755C54.5774 48.6863 55.3683 48.7499 55.8116 49.4567C56.1822 50.0471 56.5128 50.6639 56.8604 51.2687C57.7275 50.6747 57.644 49.2503 58.7945 48.9071C58.8478 48.9575 58.8987 49.0055 58.9495 49.0535Z" fill="black"/>
<path d="M83.9391 49.4472C83.1943 49.4112 82.4531 49.1412 82.2823 50.2464C82.2375 50.2116 82.1939 50.1756 82.1491 50.1408C82.1176 49.7808 82.0861 49.4208 82.0498 49.0128C83.6812 49.0128 85.2798 49.0128 86.8882 49.0128C86.8882 49.3944 86.8882 49.77 86.8882 50.2392C86.6205 49.9128 86.4704 49.5588 86.2184 49.4628C85.906 49.3428 85.5099 49.434 85.0957 49.434C85.0957 50.8152 85.0727 52.1496 85.1212 53.4828C85.1284 53.676 85.4772 53.856 85.7243 54.0972C84.8995 54.0972 84.0796 54.0972 83.2597 54.0972C83.9367 53.928 83.9549 53.4576 83.9452 52.9284C83.9258 51.7752 83.9391 50.622 83.9391 49.4472Z" fill="black"/>
<path d="M39.208 53.7444C39.7651 53.7132 40.229 53.628 40.6759 53.6772C41.3565 53.7528 41.038 52.8984 41.5975 52.7832C41.5636 53.2188 41.5709 53.5944 41.4849 53.9496C41.4558 54.0696 41.1918 54.2076 41.0319 54.2112C39.9274 54.234 38.8229 54.2232 37.596 54.2232C38.244 53.658 38.0369 52.9824 38.0659 52.3584C38.0962 51.7008 38.0865 51.0408 38.072 50.382C38.0611 49.8648 38.2331 49.242 37.2969 49.1724C37.3405 49.1244 37.3853 49.0764 37.4289 49.0296C38.2173 49.0296 39.0058 49.0296 39.8015 49.0296C39.8015 49.0752 39.8075 49.1472 39.8002 49.1484C39.0966 49.2696 39.2104 49.812 39.208 50.2848C39.2044 51.4008 39.208 52.5168 39.208 53.7444Z" fill="black"/>
<path d="M43.3952 48.9804C44.1764 48.9804 44.9563 48.9804 45.7375 48.9804C45.7557 49.0224 45.7726 49.0644 45.7908 49.1064C45.5982 49.1904 45.4069 49.2744 45.1368 49.3932C45.1368 50.7264 45.115 52.1028 45.161 53.4768C45.1671 53.67 45.5062 53.8524 45.7169 54.0672C44.9612 54.0672 44.1861 54.0672 43.4073 54.0672C43.4049 54.0216 43.3964 53.9508 43.4013 53.9508C44.0419 53.826 43.9935 53.3424 43.9911 52.8684C43.985 51.9888 43.9959 51.108 43.9959 50.2284C43.9959 49.7448 44.1122 49.1952 43.2959 49.1352C43.3286 49.0836 43.3613 49.032 43.3952 48.9804Z" fill="black"/>
<path d="M77.9053 53.9111C78.7615 53.8715 78.6198 53.3135 78.6235 52.8383C78.6307 52.0211 78.6356 51.2039 78.6307 50.3855C78.6283 49.8587 78.7967 49.2467 78.0191 48.9863C78.8039 48.9863 79.5899 48.9863 80.3747 48.9863C80.3917 49.0271 80.4098 49.0679 80.4268 49.1087C80.2367 49.1891 80.0453 49.2695 79.7643 49.3883C79.7643 50.7203 79.7425 52.0919 79.7886 53.4611C79.7958 53.6579 80.1337 53.8439 80.3372 54.0551C79.5996 54.0551 78.8209 54.0551 78.0421 54.0551C77.9973 54.0071 77.9513 53.9591 77.9053 53.9111Z" fill="black"/>
<path d="M83.5966 26.1792C83.7081 25.1292 83.7541 24.0672 83.9551 23.0352C84.0726 22.4268 84.3427 21.7992 84.706 21.2964C85.6362 20.0112 87.3208 19.9992 88.2146 21.3072C88.6494 21.9432 88.9401 22.746 89.0575 23.5092C89.3785 25.59 89.41 27.6912 88.9049 29.7564C88.7802 30.2664 88.5416 30.7872 88.2231 31.2036C87.1997 32.5416 85.5368 32.46 84.591 31.0632C83.8885 30.0252 83.7795 28.8252 83.6996 27.6264C83.6681 27.1488 83.6948 26.6676 83.6948 26.1888C83.6608 26.1852 83.6281 26.1828 83.5966 26.1792Z" fill="white"/>
<path d="M38.8291 20.9244C38.8291 21.378 38.8279 21.7932 38.8291 22.2084C38.8412 24.7068 38.8836 27.2052 38.8473 29.7024C38.8388 30.2964 38.685 30.9552 38.3895 31.4664C37.5369 32.9436 35.4816 32.976 34.6036 31.5144C34.2039 30.8484 33.9229 30.0456 33.8333 29.2764C33.6226 27.4608 33.7267 25.6476 34.3904 23.904C35.0916 22.0656 36.7993 20.8764 38.8291 20.9244Z" fill="white"/>
<path d="M21.4063 51.6407C21.313 52.0955 21.2682 52.5167 21.1374 52.9091C20.9364 53.5127 20.4931 53.8619 19.8367 53.9003C19.173 53.9387 18.6401 53.6879 18.3349 53.0975C17.8614 52.1807 17.8396 51.2099 18.1666 50.2487C18.4003 49.5599 18.955 49.2887 19.6732 49.2791C20.3732 49.2683 20.8371 49.6211 21.072 50.2211C21.2501 50.6759 21.3034 51.1799 21.4063 51.6407Z" fill="white"/>
<path d="M32.7676 50.2224C33.0595 50.9184 33.2945 51.4788 33.5621 52.1172C33.0341 52.1172 32.5763 52.1172 32.0059 52.1172C32.2541 51.5016 32.483 50.9316 32.7676 50.2224Z" fill="white"/>
<path d="M90.5668 50.3939C90.7933 50.9411 91.0198 51.4883 91.2802 52.1171C90.7437 52.1171 90.2822 52.1171 89.7275 52.1171C89.9661 51.5255 90.1914 50.9651 90.4167 50.4059C90.4663 50.4023 90.516 50.3975 90.5668 50.3939Z" fill="white"/>
<path d="M108.505 39.4104C109.122 39.3936 109.621 39.8688 109.633 40.4856C109.647 41.1444 109.168 41.6543 108.535 41.6555C107.935 41.6567 107.442 41.1636 107.426 40.548C107.412 39.948 107.907 39.426 108.505 39.4104ZM108.933 41.1359C108.978 41.1119 109.022 41.0892 109.067 41.0652C108.785 40.6752 108.504 40.2864 108.228 39.906C108.228 40.296 108.228 40.704 108.228 41.1131C108.255 41.1119 108.281 41.1096 108.307 41.1084C108.354 40.9356 108.401 40.7628 108.475 40.4928C108.67 40.7652 108.801 40.9512 108.933 41.1359Z" fill="white"/>
</g>
</g>
<defs>
<filter id="filter0_d_2_208" x="0" y="-4.57764e-05" width="117" height="68" filterUnits="userSpaceOnUse" color-interpolation-filters="sRGB">
<feFlood flood-opacity="0" result="BackgroundImageFix"/>
<feColorMatrix in="SourceAlpha" type="matrix" values="0 0 0 0 0 0 0 0 0 0 0 0 0 0 0 0 0 0 127 0" result="hardAlpha"/>
<feOffset dy="4"/>
<feGaussianBlur stdDeviation="2"/>
<feComposite in2="hardAlpha" operator="out"/>
<feColorMatrix type="matrix" values="0 0 0 0 0 0 0 0 0 0 0 0 0 0 0 0 0 0 0.25 0"/>
<feBlend mode="normal" in2="BackgroundImageFix" result="effect1_dropShadow_2_208"/>
<feBlend mode="normal" in="SourceGraphic" in2="effect1_dropShadow_2_208" result="shape"/>
</filter>
<filter id="filter1_d_2_208" x="0" y="-4.57764e-05" width="117" height="68" filterUnits="userSpaceOnUse" color-interpolation-filters="sRGB">
<feFlood flood-opacity="0" result="BackgroundImageFix"/>
<feColorMatrix in="SourceAlpha" type="matrix" values="0 0 0 0 0 0 0 0 0 0 0 0 0 0 0 0 0 0 127 0" result="hardAlpha"/>
<feOffset dy="4"/>
<feGaussianBlur stdDeviation="2"/>
<feComposite in2="hardAlpha" operator="out"/>
<feColorMatrix type="matrix" values="0 0 0 0 0 0 0 0 0 0 0 0 0 0 0 0 0 0 0.25 0"/>
<feBlend mode="normal" in2="BackgroundImageFix" result="effect1_dropShadow_2_208"/>
<feBlend mode="normal" in="SourceGraphic" in2="effect1_dropShadow_2_208" result="shape"/>
</filter>
<clipPath id="clip0_2_208">
<rect width="109" height="60" fill="white" transform="translate(4 -4.57764e-05)"/>
</clipPath>
</defs>
</svg>
